<?xml version="1.0" encoding="utf-8"?>
<!-- Generator: Adobe Illustrator 19.0.0, SVG Export Plug-In . SVG Version: 6.00 Build 0)  -->
<svg version="1.1"
	 id="svg2" xmlns:dc="http://purl.org/dc/elements/1.1/" xmlns:cc="http://creativecommons.org/ns#" xmlns:rdf="http://www.w3.org/1999/02/22-rdf-syntax-ns#" xmlns:svg="http://www.w3.org/2000/svg" xmlns:sodipodi="http://sodipodi.sourceforge.net/DTD/sodipodi-0.dtd" xmlns:inkscape="http://www.inkscape.org/namespaces/inkscape" inkscape:version="0.48.0 r9654" sodipodi:docname="2_of_clubs.svg" inkscape:export-filename="/home/byron/art/cards/final/PNGs/2_of_clubs.png" inkscape:export-xdpi="215.44792" inkscape:export-ydpi="215.44792"
	 xmlns="http://www.w3.org/2000/svg" xmlns:xlink="http://www.w3.org/1999/xlink" x="0px" y="0px" viewBox="-415 379.3 167.1 242.7"
	 style="enable-background:new -415 379.3 167.1 242.7;" xml:space="preserve">
<style type="text/css">
	.st0{fill:none;}
	.st1{fill:#DEB964;}
	.st2{fill:#B07F63;}
	.st3{fill:#B0CC78;}
	.st4{fill:#4B8DBA;}
	.st5{fill:#815F9F;}
	.st6{fill:#423020;}
	.st7{fill:#6A68A6;}
	.st8{fill:#FFFFFF;stroke:#000000;stroke-width:0.5;}
	.st9{fill:url(#Retro_Print_1);stroke:url(#SVGID_1_);stroke-miterlimit:10;}
</style>
<pattern  x="-415" y="622" width="75.3" height="65.2" patternUnits="userSpaceOnUse" id="Retro_Print_1" viewBox="0 -65.2 75.3 65.2" style="overflow:visible;">
	<g>
		<polygon class="st0" points="75.3,0 0,0 0,-65.2 75.3,-65.2 		"/>
		<polygon class="st1" points="37.7,0 0,0 0,-65.2 37.7,-65.2 		"/>
		<g>
			<g>
				<path class="st2" d="M4.4-23.4c1.9,1.9,3.7,3.7,3.7,7.1c0,3.3-1.8,5.2-3.7,7.1C2.3-7.2,0-4.8,0,0h0.6c0-8.2,8.1-8.2,8.1-16.3
					c0-8.2-8.1-8.2-8.1-16.3H0C0-27.8,2.3-25.5,4.4-23.4z"/>
				<path class="st2" d="M4.4-56c1.9,1.9,3.7,3.7,3.7,7.1c0,3.3-1.8,5.2-3.7,7.1c-2,2.1-4.4,4.4-4.4,9.2h0.6c0-8.2,8.1-8.2,8.1-16.3
					c0-8.2-8.1-8.1-8.1-16.3H0C0-60.4,2.3-58.1,4.4-56z"/>
			</g>
			<g>
				<path class="st0" d="M8.7-16.3c0-1-0.1-1.8-0.3-2.6C8.6-18.2,8.7-17.3,8.7-16.3C8.7-8.2,0.6-8.2,0.6,0h0
					C0.6-8.1,8.7-8.2,8.7-16.3z"/>
				<path class="st1" d="M0.6-32.2c0.2,6.8,6.3,7.8,7.7,13.3c0.2,0.8,0.3,1.6,0.3,2.6C8.7-8.2,0.6-8.1,0.6,0h0.6
					c0-3.3,1.8-5.1,3.7-7.1c2-2.1,4.4-4.4,4.4-9.3c0-4.8-2.3-7.1-4.4-9.2c-1.9-1.9-3.7-3.7-3.7-7c0,0,0-0.1,0-0.1H0.6
					c0,0,0,0.1,0,0.1C0.6-32.5,0.6-32.3,0.6-32.2z"/>
				<path class="st1" d="M13.8-25.5c-2,2.1-4.4,4.4-4.4,9.2c0,4.8,2.3,7.2,4.4,9.3c1.9,1.9,3.7,3.7,3.7,7.1h0.6
					c0-0.8-0.1-1.5-0.2-2.1c0-0.1,0-0.2-0.1-0.3c0,0,0,0,0,0c-0.8-3.3-3.2-5-5.2-7.2c-1.5-1.6-2.6-3.6-2.6-6.7
					c0-8.2,8.1-8.2,8.1-16.3h-0.6c0,0,0,0.1,0,0.1C17.5-29.2,15.7-27.4,13.8-25.5z"/>
				<path class="st3" d="M5-25.5c2,2.1,4.4,4.4,4.4,9.2C9.3-11.5,7-9.1,5-7.1C3.1-5.1,1.3-3.3,1.3,0h0.6c0-2.6,1.6-4.2,3.4-6
					c1.5-1.5,3.3-3.3,4.1-6.2C10.3-9.3,12-7.5,13.5-6c1.8,1.8,3.3,3.4,3.4,6h0.6c0-3.3-1.8-5.1-3.7-7.1c-2-2.1-4.4-4.4-4.4-9.3
					c0-4.8,2.3-7.1,4.4-9.2c1.9-1.9,3.7-3.7,3.7-7c0,0,0-0.1,0-0.1h-0.6c0,0,0,0.1,0,0.1c0,2.6-1.6,4.1-3.4,6
					c-1.5,1.5-3.3,3.3-4.1,6.2c-0.9-2.9-2.6-4.7-4.1-6.2c-1.8-1.8-3.4-3.4-3.4-6c0,0,0-0.1,0-0.1H1.3c0,0,0,0.1,0,0.1
					C1.3-29.2,3.1-27.4,5-25.5z"/>
				<path class="st4" d="M13.5-6c-1.5-1.5-3.3-3.3-4.1-6.2C8.5-9.3,6.7-7.5,5.2-6C3.5-4.2,1.9-2.6,1.9,0h15
					C16.9-2.6,15.3-4.2,13.5-6z"/>
				<path class="st4" d="M1.9-32.6c0,2.6,1.6,4.1,3.4,6c1.5,1.5,3.3,3.3,4.1,6.2c0.9-2.9,2.6-4.7,4.1-6.2c1.8-1.8,3.4-3.4,3.4-6
					c0,0,0-0.1,0-0.1L1.9-32.6C1.9-32.6,1.9-32.6,1.9-32.6z"/>
				<path class="st2" d="M10.1-16.3c0,3.1,1.2,5,2.6,6.7c1.9,2.2,4.4,3.9,5.2,7.2c0,0,0,0,0,0c0,0.1,0,0.2,0.1,0.3
					c0.1,0.6,0.2,1.3,0.2,2.1h0.6c0-4.8-2.3-7.2-4.4-9.2c-1.9-1.9-3.7-3.7-3.7-7.1c0-3.3,1.8-5.2,3.7-7.1c2-2.1,4.4-4.4,4.4-9.3
					h-0.6c0,0,0,0.1,0,0.1C18.1-24.4,10.1-24.4,10.1-16.3z"/>
				<path class="st2" d="M23.3-23.4c1.9,1.9,3.7,3.7,3.7,7.1c0,3.3-1.8,5.2-3.7,7.1c-2,2.1-4.4,4.4-4.4,9.2h0.6
					c0-8.2,8.1-8.2,8.1-16.3c0-8.2-8.1-8.2-8.1-16.3h-0.6C18.9-27.8,21.2-25.5,23.3-23.4z"/>
				<path class="st2" d="M10.1-16.3c0,3.1,1.2,5,2.6,6.7C11.3-11.3,10.1-13.2,10.1-16.3c0-8.1,8.1-8.1,8.1-16.2c0,0,0-0.1,0-0.1h0
					C18.1-24.5,10.1-24.5,10.1-16.3z"/>
				<path class="st3" d="M18.8-32.7h0.1c0,4.8,2.3,7.2,4.4,9.3c1.9,1.9,3.7,3.7,3.7,7.1c0,3.3-1.8,5.2-3.7,7.1
					c-2,2.1-4.4,4.4-4.4,9.2h-0.1c0-4.8-2.3-7.2-4.4-9.2c-1.9-1.9-3.7-3.7-3.7-7.1c0-3.3,1.8-5.2,3.7-7.1
					C16.5-25.5,18.8-27.8,18.8-32.7z M18.8-28.6c-0.9,2.9-2.6,4.7-4.1,6.2c-1.8,1.8-3.4,3.4-3.4,6c0,2.6,1.6,4.2,3.4,6
					C16.2-8.8,18-7,18.8-4.1c0.9-2.9,2.6-4.7,4.1-6.2c1.8-1.8,3.4-3.4,3.4-6c0-2.6-1.6-4.2-3.4-6C21.5-23.8,19.7-25.6,18.8-28.6z"/>
				<path class="st5" d="M14.7-22.3c-1.8,1.8-3.4,3.4-3.4,6c0,2.6,1.6,4.2,3.4,6C16.2-8.8,18-7,18.8-4.1c0.9-2.9,2.6-4.7,4.1-6.2
					c1.8-1.8,3.4-3.4,3.4-6c0-2.6-1.6-4.2-3.4-6c-1.5-1.5-3.3-3.3-4.1-6.2C18-25.6,16.2-23.8,14.7-22.3z"/>
				<path class="st2" d="M8.7-16.3c0-1-0.1-1.9-0.3-2.6c-1.5-5.5-7.6-6.5-7.7-13.3c0-0.1,0-0.3,0-0.4H0c0,4.8,2.3,7.2,4.4,9.3
					c1.9,1.9,3.7,3.7,3.7,7.1c0,3.3-1.8,5.2-3.7,7.1C2.3-7.2,0-4.8,0,0h0.6C0.6-8.2,8.7-8.2,8.7-16.3z"/>
				<path class="st2" d="M8.4-18.9c-1.5-5.6-7.5-6.5-7.7-13.3C0.8-25.4,6.9-24.5,8.4-18.9z"/>
				<path class="st0" d="M8.7-49c0-1-0.1-1.8-0.3-2.6C8.6-50.8,8.7-49.9,8.7-49c0,8.2-8.1,8.2-8.1,16.3h0C0.6-40.8,8.7-40.8,8.7-49z
					"/>
				<path class="st1" d="M0.6-65.2c0.2,6.8,6.3,8.1,7.7,13.6c0.2,0.8,0.3,1.6,0.3,2.6c0,8.2-8.1,8.2-8.1,16.3h0.6
					c0-3.3,1.8-5.1,3.7-7.1c2-2.1,4.4-4.4,4.4-9.3c0-4.8-2.3-7.1-4.4-9.2c-1.9-1.9-3.7-3.7-3.7-7.1c0,0,0,0,0,0H0.6
					C0.6-65.2,0.6-65.2,0.6-65.2C0.6-65.1,0.6-65.3,0.6-65.2z"/>
				<path class="st1" d="M13.8-58.2c-2,2.1-4.4,4.4-4.4,9.2c0,4.8,2.3,7.2,4.4,9.3c1.9,1.9,3.7,3.7,3.7,7.1h0.6
					c0-0.8-0.1-1.5-0.2-2.1c0-0.1,0-0.2-0.1-0.3c0,0,0,0,0,0c-0.8-3.3-3.2-5-5.2-7.2c-1.5-1.6-2.6-3.6-2.6-6.7
					c0-8.2,8.1-8.1,8.1-16.3h-0.6c0,0,0,0,0,0C17.5-61.9,15.7-60.1,13.8-58.2z"/>
				<path class="st3" d="M5-58.2c2,2.1,4.4,4.4,4.4,9.2c0,4.8-2.3,7.2-4.4,9.3c-1.9,1.9-3.7,3.7-3.7,7.1h0.6c0-2.6,1.6-4.2,3.4-6
					c1.5-1.5,3.3-3.3,4.1-6.2c0.9,2.9,2.6,4.7,4.1,6.2c1.8,1.8,3.3,3.4,3.4,6h0.6c0-3.3-1.8-5.1-3.7-7.1c-2-2.1-4.4-4.4-4.4-9.3
					c0-4.8,2.3-7.1,4.4-9.2c1.9-1.9,3.7-3.7,3.7-7.1c0,0,0,0,0,0h-0.6c0,0,0,0,0,0c0,2.6-1.6,4.2-3.4,6c-1.5,1.5-3.3,3.3-4.1,6.2
					c-0.9-2.9-2.6-4.7-4.1-6.2c-1.8-1.8-3.4-3.4-3.4-6c0,0,0,0,0,0H1.3c0,0,0,0,0,0C1.3-61.9,3.1-60.1,5-58.2z"/>
				<path class="st4" d="M13.5-38.6c-1.5-1.5-3.3-3.3-4.1-6.2c-0.9,2.9-2.6,4.7-4.1,6.2c-1.8,1.8-3.3,3.4-3.4,6h15
					C16.9-35.2,15.3-36.8,13.5-38.6z"/>
				<path class="st4" d="M1.9-65.2c0,2.6,1.6,4.2,3.4,6c1.5,1.5,3.3,3.3,4.1,6.2c0.9-2.9,2.6-4.7,4.1-6.2c1.8-1.8,3.4-3.4,3.4-6
					c0,0,0,0,0,0H1.9C1.9-65.2,1.9-65.2,1.9-65.2z"/>
				<path class="st2" d="M10.1-49c0,3.1,1.2,5,2.6,6.7c1.9,2.2,4.4,3.9,5.2,7.2c0,0,0,0,0,0c0,0.1,0,0.2,0.1,0.3
					c0.1,0.6,0.2,1.3,0.2,2.1h0.6c0-4.8-2.3-7.2-4.4-9.2c-1.9-1.9-3.7-3.7-3.7-7.1c0-3.3,1.8-5.2,3.7-7.1c2-2.1,4.4-4.4,4.4-9.2
					h-0.6c0,0,0,0,0,0C18.1-57.1,10.1-57.1,10.1-49z"/>
				<path class="st2" d="M23.3-56c1.9,1.9,3.7,3.7,3.7,7.1c0,3.3-1.8,5.2-3.7,7.1c-2,2.1-4.4,4.4-4.4,9.2h0.6
					c0-8.2,8.1-8.2,8.1-16.3c0-8.2-8.1-8.1-8.1-16.3h-0.6C18.9-60.4,21.2-58.1,23.3-56z"/>
				<path class="st2" d="M10.1-48.9c0,3.1,1.2,5,2.6,6.7C11.3-43.9,10.1-45.8,10.1-48.9c0-8.1,8.1-8.2,8.1-16.3c0,0,0,0,0,0h0
					C18.1-57,10.1-57.1,10.1-48.9z"/>
				<path class="st3" d="M18.8-65.2h0.1c0,4.8,2.3,7.1,4.4,9.2c1.9,1.9,3.7,3.7,3.7,7.1c0,3.3-1.8,5.2-3.7,7.1
					c-2,2.1-4.4,4.4-4.4,9.2h-0.1c0-4.8-2.3-7.2-4.4-9.2c-1.9-1.9-3.7-3.7-3.7-7.1c0-3.3,1.8-5.2,3.7-7.1
					C16.5-58.1,18.8-60.4,18.8-65.2z M18.8-61.2c-0.9,2.9-2.6,4.7-4.1,6.2c-1.8,1.8-3.4,3.4-3.4,6c0,2.6,1.6,4.2,3.4,6
					c1.5,1.5,3.3,3.3,4.1,6.2c0.9-2.9,2.6-4.7,4.1-6.2c1.8-1.8,3.4-3.4,3.4-6c0-2.6-1.6-4.2-3.4-6C21.5-56.5,19.7-58.3,18.8-61.2z"
					/>
				<path class="st5" d="M14.7-55c-1.8,1.8-3.4,3.4-3.4,6c0,2.6,1.6,4.2,3.4,6c1.5,1.5,3.3,3.3,4.1,6.2c0.9-2.9,2.6-4.7,4.1-6.2
					c1.8-1.8,3.4-3.4,3.4-6c0-2.6-1.6-4.2-3.4-6c-1.5-1.5-3.3-3.3-4.1-6.2C18-58.3,16.2-56.5,14.7-55z"/>
				<path class="st2" d="M8.7-48.9c0-1-0.1-1.9-0.3-2.6c-1.5-5.5-7.6-6.8-7.7-13.6c0-0.1,0,0.1,0,0H0c0,4.8,2.3,7.1,4.4,9.2
					c1.9,1.9,3.7,3.7,3.7,7.1c0,3.3-1.8,5.2-3.7,7.1c-2,2.1-4.4,4.4-4.4,9.2h0.6C0.6-40.8,8.7-40.8,8.7-48.9z"/>
				<path class="st2" d="M8.4-51.6c-1.5-5.6-7.5-6.8-7.7-13.6C0.8-58.4,6.9-57.1,8.4-51.6z"/>
			</g>
			<g>
				<path class="st0" d="M27.6-16.3c0-1-0.1-1.8-0.3-2.6C27.5-18.2,27.6-17.3,27.6-16.3c0,8.2-8.1,8.2-8.1,16.3h0
					C19.5-8.1,27.6-8.2,27.6-16.3z"/>
				<path class="st1" d="M19.5-32.2c0.2,6.8,6.3,7.8,7.7,13.3c0.2,0.8,0.3,1.6,0.3,2.6c0,8.2-8.1,8.2-8.1,16.3h0.6
					c0-3.3,1.8-5.1,3.7-7.1c2-2.1,4.4-4.4,4.4-9.3c0-4.8-2.3-7.1-4.4-9.2c-1.9-1.9-3.7-3.7-3.7-7c0,0,0-0.1,0-0.1h-0.6
					c0,0,0,0.1,0,0.1C19.5-32.5,19.5-32.3,19.5-32.2z"/>
				<path class="st1" d="M32.7-25.5c-2.1,2.1-4.4,4.4-4.4,9.2c0,4.8,2.3,7.2,4.4,9.3c1.9,1.9,3.7,3.7,3.7,7.1H37
					c0-0.8-0.1-1.5-0.2-2.1c0-0.1,0-0.2-0.1-0.3c0,0,0,0,0,0c-0.8-3.3-3.2-5-5.2-7.2c-1.5-1.6-2.6-3.6-2.6-6.7
					c0-8.2,8.1-8.2,8.1-16.3h-0.6c0,0,0,0.1,0,0.1C36.4-29.2,34.6-27.4,32.7-25.5z"/>
				<path class="st3" d="M23.9-25.5c2,2.1,4.4,4.4,4.4,9.2c0,4.8-2.3,7.2-4.4,9.3C22-5.1,20.2-3.3,20.2,0h0.6c0-2.6,1.6-4.2,3.4-6
					c1.5-1.5,3.3-3.3,4.1-6.2c0.9,2.9,2.6,4.7,4.1,6.2c1.8,1.8,3.3,3.4,3.4,6h0.6c0-3.3-1.8-5.1-3.7-7.1c-2-2.1-4.4-4.4-4.4-9.3
					c0-4.8,2.3-7.1,4.4-9.2c1.9-1.9,3.7-3.7,3.7-7c0,0,0-0.1,0-0.1h-0.6c0,0,0,0.1,0,0.1c0,2.6-1.6,4.1-3.4,6
					c-1.5,1.5-3.3,3.3-4.1,6.2c-0.9-2.9-2.6-4.7-4.1-6.2c-1.8-1.8-3.4-3.4-3.4-6c0,0,0-0.1,0-0.1h-0.6c0,0,0,0.1,0,0.1
					C20.2-29.2,22-27.4,23.9-25.5z"/>
				<path class="st4" d="M32.4-6c-1.5-1.5-3.3-3.3-4.1-6.2c-0.9,2.9-2.6,4.7-4.1,6.2c-1.8,1.8-3.3,3.4-3.4,6h15
					C35.8-2.6,34.2-4.2,32.4-6z"/>
				<path class="st4" d="M20.8-32.6c0,2.6,1.6,4.1,3.4,6c1.5,1.5,3.3,3.3,4.1,6.2c0.9-2.9,2.6-4.7,4.1-6.2c1.8-1.8,3.4-3.4,3.4-6
					c0,0,0-0.1,0-0.1L20.8-32.6C20.8-32.6,20.8-32.6,20.8-32.6z"/>
				<path class="st2" d="M29-16.3c0,3.1,1.2,5,2.6,6.7c1.9,2.2,4.4,3.9,5.2,7.2c0,0,0,0,0,0c0,0.1,0,0.2,0.1,0.3C37-1.5,37-0.8,37,0
					h0.6c0-4.8-2.3-7.2-4.4-9.2c-1.9-1.9-3.7-3.7-3.7-7.1c0-3.3,1.8-5.2,3.7-7.1c2-2.1,4.4-4.4,4.4-9.3H37c0,0,0,0.1,0,0.1
					C37-24.4,29-24.4,29-16.3z"/>
				<path class="st2" d="M29-16.3c0,3.1,1.2,5,2.6,6.7C30.2-11.3,29-13.2,29-16.3c0-8.1,8.1-8.1,8.1-16.2c0,0,0-0.1,0-0.1h0
					C37-24.5,29-24.5,29-16.3z"/>
				<path class="st2" d="M27.6-16.3c0-1-0.1-1.9-0.3-2.6c-1.5-5.5-7.6-6.5-7.7-13.3c0-0.1,0-0.3,0-0.4h-0.6c0,4.8,2.3,7.2,4.4,9.3
					c1.9,1.9,3.7,3.7,3.7,7.1c0,3.3-1.8,5.2-3.7,7.1c-2,2.1-4.4,4.4-4.4,9.2h0.6C19.5-8.2,27.6-8.2,27.6-16.3z"/>
				<path class="st2" d="M27.3-18.9c-1.5-5.6-7.5-6.5-7.7-13.3C19.7-25.4,25.8-24.5,27.3-18.9z"/>
				<path class="st0" d="M27.6-49c0-1-0.1-1.8-0.3-2.6C27.5-50.8,27.6-49.9,27.6-49c0,8.2-8.1,8.2-8.1,16.3h0
					C19.5-40.8,27.6-40.8,27.6-49z"/>
				<path class="st1" d="M19.5-65.2c0.2,6.8,6.3,8.1,7.7,13.6c0.2,0.8,0.3,1.6,0.3,2.6c0,8.2-8.1,8.2-8.1,16.3h0.6
					c0-3.3,1.8-5.1,3.7-7.1c2-2.1,4.4-4.4,4.4-9.3c0-4.8-2.3-7.1-4.4-9.2c-1.9-1.9-3.7-3.7-3.7-7.1c0,0,0,0,0,0H19.5
					C19.5-65.2,19.5-65.2,19.5-65.2C19.5-65.1,19.5-65.3,19.5-65.2z"/>
				<path class="st1" d="M32.7-58.2c-2.1,2.1-4.4,4.4-4.4,9.2c0,4.8,2.3,7.2,4.4,9.3c1.9,1.9,3.7,3.7,3.7,7.1H37
					c0-0.8-0.1-1.5-0.2-2.1c0-0.1,0-0.2-0.1-0.3c0,0,0,0,0,0c-0.8-3.3-3.2-5-5.2-7.2c-1.5-1.6-2.6-3.6-2.6-6.7
					C29-57.1,37-57,37-65.2h-0.6c0,0,0,0,0,0C36.4-61.9,34.6-60.1,32.7-58.2z"/>
				<path class="st3" d="M23.9-58.2c2,2.1,4.4,4.4,4.4,9.2c0,4.8-2.3,7.2-4.4,9.3c-1.9,1.9-3.7,3.7-3.7,7.1h0.6c0-2.6,1.6-4.2,3.4-6
					c1.5-1.5,3.3-3.3,4.1-6.2c0.9,2.9,2.6,4.7,4.1,6.2c1.8,1.8,3.3,3.4,3.4,6h0.6c0-3.3-1.8-5.1-3.7-7.1c-2-2.1-4.4-4.4-4.4-9.3
					c0-4.8,2.3-7.1,4.4-9.2c1.9-1.9,3.7-3.7,3.7-7.1c0,0,0,0,0,0h-0.6c0,0,0,0,0,0c0,2.6-1.6,4.2-3.4,6c-1.5,1.5-3.3,3.3-4.1,6.2
					c-0.9-2.9-2.6-4.7-4.1-6.2c-1.8-1.8-3.4-3.4-3.4-6c0,0,0,0,0,0h-0.6c0,0,0,0,0,0C20.2-61.9,22-60.1,23.9-58.2z"/>
				<path class="st4" d="M32.4-38.6c-1.5-1.5-3.3-3.3-4.1-6.2c-0.9,2.9-2.6,4.7-4.1,6.2c-1.8,1.8-3.3,3.4-3.4,6h15
					C35.8-35.2,34.2-36.8,32.4-38.6z"/>
				<path class="st4" d="M20.8-65.2c0,2.6,1.6,4.2,3.4,6c1.5,1.5,3.3,3.3,4.1,6.2c0.9-2.9,2.6-4.7,4.1-6.2c1.8-1.8,3.4-3.4,3.4-6
					c0,0,0,0,0,0H20.8C20.8-65.2,20.8-65.2,20.8-65.2z"/>
				<path class="st2" d="M29-49c0,3.1,1.2,5,2.6,6.7c1.9,2.2,4.4,3.9,5.2,7.2c0,0,0,0,0,0c0,0.1,0,0.2,0.1,0.3
					c0.1,0.6,0.2,1.3,0.2,2.1h0.6c0-4.8-2.3-7.2-4.4-9.2c-1.9-1.9-3.7-3.7-3.7-7.1c0-3.3,1.8-5.2,3.7-7.1c2-2.1,4.4-4.4,4.4-9.2H37
					c0,0,0,0,0,0C37-57.1,29-57.1,29-49z"/>
				<path class="st2" d="M29-48.9c0,3.1,1.2,5,2.6,6.7C30.2-43.9,29-45.8,29-48.9c0-8.1,8.1-8.2,8.1-16.3c0,0,0,0,0,0h0
					C37-57,29-57.1,29-48.9z"/>
				<path class="st2" d="M27.6-48.9c0-1-0.1-1.9-0.3-2.6c-1.5-5.5-7.6-6.8-7.7-13.6c0-0.1,0,0.1,0,0h-0.6c0,4.8,2.3,7.1,4.4,9.2
					c1.9,1.9,3.7,3.7,3.7,7.1c0,3.3-1.8,5.2-3.7,7.1c-2,2.1-4.4,4.4-4.4,9.2h0.6C19.5-40.8,27.6-40.8,27.6-48.9z"/>
				<path class="st2" d="M27.3-51.6c-1.5-5.6-7.5-6.8-7.7-13.6C19.7-58.4,25.8-57.1,27.3-51.6z"/>
			</g>
		</g>
		<polygon class="st2" points="75.3,0 37.7,0 37.7,-65.2 75.3,-65.2 		"/>
		<g>
			<g>
				<path class="st2" d="M42-23.4c1.9,1.9,3.7,3.7,3.7,7.1c0,3.3-1.8,5.2-3.7,7.1c-2,2.1-4.4,4.4-4.4,9.2h0.6
					c0-8.2,8.1-8.2,8.1-16.3c0-8.2-8.1-8.2-8.1-16.3h-0.6C37.7-27.8,40-25.5,42-23.4z"/>
				<path class="st2" d="M42-56c1.9,1.9,3.7,3.7,3.7,7.1c0,3.3-1.8,5.2-3.7,7.1c-2,2.1-4.4,4.4-4.4,9.2h0.6c0-8.2,8.1-8.2,8.1-16.3
					c0-8.2-8.1-8.1-8.1-16.3h-0.6C37.7-60.4,40-58.1,42-56z"/>
			</g>
			<g>
				<path class="st0" d="M46.4-16.3c0-1-0.1-1.8-0.3-2.6C46.2-18.2,46.4-17.3,46.4-16.3c0,8.2-8.1,8.2-8.1,16.3h0
					C38.3-8.1,46.4-8.2,46.4-16.3z"/>
				<path class="st1" d="M38.3-32.2c0.2,6.8,6.3,7.8,7.7,13.3c0.2,0.8,0.3,1.6,0.3,2.6c0,8.2-8.1,8.2-8.1,16.3h0.6
					c0-3.3,1.8-5.1,3.7-7.1c2-2.1,4.4-4.4,4.4-9.3c0-4.8-2.3-7.1-4.4-9.2c-1.9-1.9-3.7-3.7-3.7-7c0,0,0-0.1,0-0.1h-0.6
					c0,0,0,0.1,0,0.1C38.3-32.5,38.3-32.3,38.3-32.2z"/>
				<path class="st1" d="M51.5-25.5c-2,2.1-4.4,4.4-4.4,9.2c0,4.8,2.3,7.2,4.4,9.3c1.9,1.9,3.7,3.7,3.7,7.1h0.6
					c0-0.8-0.1-1.5-0.2-2.1c0-0.1,0-0.2-0.1-0.3c0,0,0,0,0,0c-0.8-3.3-3.2-5-5.2-7.2c-1.5-1.6-2.6-3.6-2.6-6.7
					c0-8.2,8.1-8.2,8.1-16.3h-0.6c0,0,0,0.1,0,0.1C55.2-29.2,53.4-27.4,51.5-25.5z"/>
				<path class="st3" d="M42.6-25.5c2,2.1,4.4,4.4,4.4,9.2c0,4.8-2.3,7.2-4.4,9.3c-1.9,1.9-3.7,3.7-3.7,7.1h0.6c0-2.6,1.6-4.2,3.4-6
					c1.5-1.5,3.3-3.3,4.1-6.2c0.9,2.9,2.6,4.7,4.1,6.2c1.8,1.8,3.3,3.4,3.4,6h0.6c0-3.3-1.8-5.1-3.7-7.1c-2-2.1-4.4-4.4-4.4-9.3
					c0-4.8,2.3-7.1,4.4-9.2c1.9-1.9,3.7-3.7,3.7-7c0,0,0-0.1,0-0.1h-0.6c0,0,0,0.1,0,0.1c0,2.6-1.6,4.1-3.4,6
					c-1.5,1.5-3.3,3.3-4.1,6.2c-0.9-2.9-2.6-4.7-4.1-6.2c-1.8-1.8-3.4-3.4-3.4-6c0,0,0-0.1,0-0.1h-0.6c0,0,0,0.1,0,0.1
					C38.9-29.2,40.7-27.4,42.6-25.5z"/>
				<path class="st6" d="M51.2-6c-1.5-1.5-3.3-3.3-4.1-6.2c-0.9,2.9-2.6,4.7-4.1,6.2c-1.8,1.8-3.3,3.4-3.4,6h15
					C54.6-2.6,53-4.2,51.2-6z"/>
				<path class="st6" d="M39.6-32.6c0,2.6,1.6,4.1,3.4,6c1.5,1.5,3.3,3.3,4.1,6.2c0.9-2.9,2.6-4.7,4.1-6.2c1.8-1.8,3.4-3.4,3.4-6
					c0,0,0-0.1,0-0.1L39.6-32.6C39.6-32.6,39.6-32.6,39.6-32.6z"/>
				<path class="st2" d="M47.8-16.3c0,3.1,1.2,5,2.6,6.7c1.9,2.2,4.4,3.9,5.2,7.2c0,0,0,0,0,0c0,0.1,0,0.2,0.1,0.3
					c0.1,0.6,0.2,1.3,0.2,2.1h0.6c0-4.8-2.3-7.2-4.4-9.2c-1.9-1.9-3.7-3.7-3.7-7.1c0-3.3,1.8-5.2,3.7-7.1c2-2.1,4.4-4.4,4.4-9.3
					h-0.6c0,0,0,0.1,0,0.1C55.8-24.4,47.8-24.4,47.8-16.3z"/>
				<path class="st2" d="M60.9-23.4c1.9,1.9,3.7,3.7,3.7,7.1c0,3.3-1.8,5.2-3.7,7.1c-2,2.1-4.4,4.4-4.4,9.2h0.6
					c0-8.2,8.1-8.2,8.1-16.3c0-8.2-8.1-8.2-8.1-16.3h-0.6C56.6-27.8,58.9-25.5,60.9-23.4z"/>
				<path class="st2" d="M47.8-16.3c0,3.1,1.2,5,2.6,6.7C48.9-11.3,47.8-13.2,47.8-16.3c0-8.1,8.1-8.1,8.1-16.2c0,0,0-0.1,0-0.1h0
					C55.8-24.5,47.8-24.5,47.8-16.3z"/>
				<path class="st3" d="M56.4-32.7h0.1c0,4.8,2.3,7.2,4.4,9.3c1.9,1.9,3.7,3.7,3.7,7.1c0,3.3-1.8,5.2-3.7,7.1
					c-2,2.1-4.4,4.4-4.4,9.2h-0.1c0-4.8-2.3-7.2-4.4-9.2c-1.9-1.9-3.7-3.7-3.7-7.1c0-3.3,1.8-5.2,3.7-7.1
					C54.1-25.5,56.4-27.8,56.4-32.7z M56.5-28.6c-0.9,2.9-2.6,4.7-4.1,6.2c-1.8,1.8-3.4,3.4-3.4,6c0,2.6,1.6,4.2,3.4,6
					c1.5,1.5,3.3,3.3,4.1,6.2c0.9-2.9,2.6-4.7,4.1-6.2c1.8-1.8,3.4-3.4,3.4-6c0-2.6-1.6-4.2-3.4-6C59.2-23.8,57.4-25.6,56.5-28.6z"
					/>
				<path class="st7" d="M52.4-22.3c-1.8,1.8-3.4,3.4-3.4,6c0,2.6,1.6,4.2,3.4,6c1.5,1.5,3.3,3.3,4.1,6.2c0.9-2.9,2.6-4.7,4.1-6.2
					c1.8-1.8,3.4-3.4,3.4-6c0-2.6-1.6-4.2-3.4-6c-1.5-1.5-3.3-3.3-4.1-6.2C55.6-25.6,53.9-23.8,52.4-22.3z"/>
				<path class="st2" d="M46.4-16.3c0-1-0.1-1.9-0.3-2.6c-1.5-5.5-7.6-6.5-7.7-13.3c0-0.1,0-0.3,0-0.4h-0.6c0,4.8,2.3,7.2,4.4,9.3
					c1.9,1.9,3.7,3.7,3.7,7.1c0,3.3-1.8,5.2-3.7,7.1c-2,2.1-4.4,4.4-4.4,9.2h0.6C38.3-8.2,46.4-8.2,46.4-16.3z"/>
				<path class="st2" d="M46-18.9c-1.5-5.6-7.5-6.5-7.7-13.3C38.5-25.4,44.6-24.5,46-18.9z"/>
				<path class="st0" d="M46.4-49c0-1-0.1-1.8-0.3-2.6C46.2-50.8,46.4-49.9,46.4-49c0,8.2-8.1,8.2-8.1,16.3h0
					C38.3-40.8,46.4-40.8,46.4-49z"/>
				<path class="st1" d="M38.3-65.2c0.2,6.8,6.3,8.1,7.7,13.6c0.2,0.8,0.3,1.6,0.3,2.6c0,8.2-8.1,8.2-8.1,16.3h0.6
					c0-3.3,1.8-5.1,3.7-7.1c2-2.1,4.4-4.4,4.4-9.3c0-4.8-2.3-7.1-4.4-9.2c-1.9-1.9-3.7-3.7-3.7-7.1c0,0,0,0,0,0H38.3
					C38.3-65.2,38.3-65.2,38.3-65.2C38.3-65.1,38.3-65.3,38.3-65.2z"/>
				<path class="st1" d="M51.5-58.2c-2,2.1-4.4,4.4-4.4,9.2c0,4.8,2.3,7.2,4.4,9.3c1.9,1.9,3.7,3.7,3.7,7.1h0.6
					c0-0.8-0.1-1.5-0.2-2.1c0-0.1,0-0.2-0.1-0.3c0,0,0,0,0,0c-0.8-3.3-3.2-5-5.2-7.2c-1.5-1.6-2.6-3.6-2.6-6.7
					c0-8.2,8.1-8.1,8.1-16.3h-0.6c0,0,0,0,0,0C55.2-61.9,53.4-60.1,51.5-58.2z"/>
				<path class="st3" d="M42.6-58.2c2,2.1,4.4,4.4,4.4,9.2c0,4.8-2.3,7.2-4.4,9.3c-1.9,1.9-3.7,3.7-3.7,7.1h0.6c0-2.6,1.6-4.2,3.4-6
					c1.5-1.5,3.3-3.3,4.1-6.2c0.9,2.9,2.6,4.7,4.1,6.2c1.8,1.8,3.3,3.4,3.4,6h0.6c0-3.3-1.8-5.1-3.7-7.1c-2-2.1-4.4-4.4-4.4-9.3
					c0-4.8,2.3-7.1,4.4-9.2c1.9-1.9,3.7-3.7,3.7-7.1c0,0,0,0,0,0h-0.6c0,0,0,0,0,0c0,2.6-1.6,4.2-3.4,6c-1.5,1.5-3.3,3.3-4.1,6.2
					c-0.9-2.9-2.6-4.7-4.1-6.2c-1.8-1.8-3.4-3.4-3.4-6c0,0,0,0,0,0h-0.6c0,0,0,0,0,0C38.9-61.9,40.7-60.1,42.6-58.2z"/>
				<path class="st6" d="M51.2-38.6c-1.5-1.5-3.3-3.3-4.1-6.2c-0.9,2.9-2.6,4.7-4.1,6.2c-1.8,1.8-3.3,3.4-3.4,6h15
					C54.6-35.2,53-36.8,51.2-38.6z"/>
				<path class="st6" d="M39.6-65.2c0,2.6,1.6,4.2,3.4,6c1.5,1.5,3.3,3.3,4.1,6.2c0.9-2.9,2.6-4.7,4.1-6.2c1.8-1.8,3.4-3.4,3.4-6
					c0,0,0,0,0,0H39.6C39.6-65.2,39.6-65.2,39.6-65.2z"/>
				<path class="st2" d="M47.8-49c0,3.1,1.2,5,2.6,6.7c1.9,2.2,4.4,3.9,5.2,7.2c0,0,0,0,0,0c0,0.1,0,0.2,0.1,0.3
					c0.1,0.6,0.2,1.3,0.2,2.1h0.6c0-4.8-2.3-7.2-4.4-9.2c-1.9-1.9-3.7-3.7-3.7-7.1c0-3.3,1.8-5.2,3.7-7.1c2-2.1,4.4-4.4,4.4-9.2
					h-0.6c0,0,0,0,0,0C55.8-57.1,47.8-57.1,47.8-49z"/>
				<path class="st2" d="M60.9-56c1.9,1.9,3.7,3.7,3.7,7.1c0,3.3-1.8,5.2-3.7,7.1c-2,2.1-4.4,4.4-4.4,9.2h0.6
					c0-8.2,8.1-8.2,8.1-16.3c0-8.2-8.1-8.1-8.1-16.3h-0.6C56.6-60.4,58.9-58.1,60.9-56z"/>
				<path class="st2" d="M47.8-48.9c0,3.1,1.2,5,2.6,6.7C48.9-43.9,47.8-45.8,47.8-48.9c0-8.1,8.1-8.2,8.1-16.3c0,0,0,0,0,0h0
					C55.8-57,47.8-57.1,47.8-48.9z"/>
				<path class="st3" d="M56.4-65.2h0.1c0,4.8,2.3,7.1,4.4,9.2c1.9,1.9,3.7,3.7,3.7,7.1c0,3.3-1.8,5.2-3.7,7.1
					c-2,2.1-4.4,4.4-4.4,9.2h-0.1c0-4.8-2.3-7.2-4.4-9.2c-1.9-1.9-3.7-3.7-3.7-7.1c0-3.3,1.8-5.2,3.7-7.1
					C54.1-58.1,56.4-60.4,56.4-65.2z M56.5-61.2c-0.9,2.9-2.6,4.7-4.1,6.2c-1.8,1.8-3.4,3.4-3.4,6c0,2.6,1.6,4.2,3.4,6
					c1.5,1.5,3.3,3.3,4.1,6.2c0.9-2.9,2.6-4.7,4.1-6.2c1.8-1.8,3.4-3.4,3.4-6c0-2.6-1.6-4.2-3.4-6C59.2-56.5,57.4-58.3,56.5-61.2z"
					/>
				<path class="st7" d="M52.4-55c-1.8,1.8-3.4,3.4-3.4,6c0,2.6,1.6,4.2,3.4,6c1.5,1.5,3.3,3.3,4.1,6.2c0.9-2.9,2.6-4.7,4.1-6.2
					c1.8-1.8,3.4-3.4,3.4-6c0-2.6-1.6-4.2-3.4-6c-1.5-1.5-3.3-3.3-4.1-6.2C55.6-58.3,53.9-56.5,52.4-55z"/>
				<path class="st2" d="M46.4-48.9c0-1-0.1-1.9-0.3-2.6c-1.5-5.5-7.6-6.8-7.7-13.6c0-0.1,0,0.1,0,0h-0.6c0,4.8,2.3,7.1,4.4,9.2
					c1.9,1.9,3.7,3.7,3.7,7.1c0,3.3-1.8,5.2-3.7,7.1c-2,2.1-4.4,4.4-4.4,9.2h0.6C38.3-40.8,46.4-40.8,46.4-48.9z"/>
				<path class="st2" d="M46-51.6c-1.5-5.6-7.5-6.8-7.7-13.6C38.5-58.4,44.6-57.1,46-51.6z"/>
			</g>
			<g>
				<path class="st0" d="M65.3-16.3c0-1-0.1-1.8-0.3-2.6C65.1-18.2,65.3-17.3,65.3-16.3c0,8.2-8.1,8.2-8.1,16.3h0
					C57.2-8.1,65.3-8.2,65.3-16.3z"/>
				<path class="st1" d="M57.2-32.2c0.2,6.8,6.3,7.8,7.7,13.3c0.2,0.8,0.3,1.6,0.3,2.6c0,8.2-8.1,8.2-8.1,16.3h0.6
					c0-3.3,1.8-5.1,3.7-7.1c2-2.1,4.4-4.4,4.4-9.3c0-4.8-2.3-7.1-4.4-9.2c-1.9-1.9-3.7-3.7-3.7-7c0,0,0-0.1,0-0.1h-0.6
					c0,0,0,0.1,0,0.1C57.2-32.5,57.2-32.3,57.2-32.2z"/>
				<path class="st1" d="M70.4-25.5c-2.1,2.1-4.4,4.4-4.4,9.2c0,4.8,2.3,7.2,4.4,9.3c1.9,1.9,3.7,3.7,3.7,7.1h0.6
					c0-0.8-0.1-1.5-0.2-2.1c0-0.1,0-0.2-0.1-0.3c0,0,0,0,0,0c-0.8-3.3-3.2-5-5.2-7.2c-1.5-1.6-2.6-3.6-2.6-6.7
					c0-8.2,8.1-8.2,8.1-16.3h-0.6c0,0,0,0.1,0,0.1C74.1-29.2,72.3-27.4,70.4-25.5z"/>
				<path class="st3" d="M61.5-25.5c2,2.1,4.4,4.4,4.4,9.2c0,4.8-2.3,7.2-4.4,9.3c-1.9,1.9-3.7,3.7-3.7,7.1h0.6c0-2.6,1.6-4.2,3.4-6
					c1.5-1.5,3.3-3.3,4.1-6.2c0.9,2.9,2.6,4.7,4.1,6.2c1.8,1.8,3.3,3.4,3.4,6h0.6c0-3.3-1.8-5.1-3.7-7.1c-2-2.1-4.4-4.4-4.4-9.3
					c0-4.8,2.3-7.1,4.4-9.2c1.9-1.9,3.7-3.7,3.7-7c0,0,0-0.1,0-0.1h-0.6c0,0,0,0.1,0,0.1c0,2.6-1.6,4.1-3.4,6
					c-1.5,1.5-3.3,3.3-4.1,6.2c-0.9-2.9-2.6-4.7-4.1-6.2c-1.8-1.8-3.4-3.4-3.4-6c0,0,0-0.1,0-0.1h-0.6c0,0,0,0.1,0,0.1
					C57.8-29.2,59.6-27.4,61.5-25.5z"/>
				<path class="st6" d="M70.1-6c-1.5-1.5-3.3-3.3-4.1-6.2c-0.9,2.9-2.6,4.7-4.1,6.2c-1.8,1.8-3.3,3.4-3.4,6h15
					C73.4-2.6,71.9-4.2,70.1-6z"/>
				<path class="st6" d="M58.5-32.6c0,2.6,1.6,4.1,3.4,6c1.5,1.5,3.3,3.3,4.1,6.2c0.9-2.9,2.6-4.7,4.1-6.2c1.8-1.8,3.4-3.4,3.4-6
					c0,0,0-0.1,0-0.1L58.5-32.6C58.5-32.6,58.5-32.6,58.5-32.6z"/>
				<path class="st2" d="M66.7-16.3c0,3.1,1.2,5,2.6,6.7c1.9,2.2,4.4,3.9,5.2,7.2c0,0,0,0,0,0c0,0.1,0,0.2,0.1,0.3
					c0.1,0.6,0.2,1.3,0.2,2.1h0.6c0-4.8-2.3-7.2-4.4-9.2c-1.9-1.9-3.7-3.7-3.7-7.1c0-3.3,1.8-5.2,3.7-7.1c2-2.1,4.4-4.4,4.4-9.3
					h-0.6c0,0,0,0.1,0,0.1C74.7-24.4,66.7-24.4,66.7-16.3z"/>
				<path class="st2" d="M66.7-16.3c0,3.1,1.2,5,2.6,6.7C67.8-11.3,66.7-13.2,66.7-16.3c0-8.1,8.1-8.1,8.1-16.2c0,0,0-0.1,0-0.1h0
					C74.7-24.5,66.7-24.5,66.7-16.3z"/>
				<path class="st2" d="M65.3-16.3c0-1-0.1-1.9-0.3-2.6c-1.5-5.5-7.6-6.5-7.7-13.3c0-0.1,0-0.3,0-0.4h-0.6c0,4.8,2.3,7.2,4.4,9.3
					c1.9,1.9,3.7,3.7,3.7,7.1c0,3.3-1.8,5.2-3.7,7.1c-2,2.1-4.4,4.4-4.4,9.2h0.6C57.2-8.2,65.3-8.2,65.3-16.3z"/>
				<path class="st2" d="M64.9-18.9c-1.5-5.6-7.5-6.5-7.7-13.3C57.4-25.4,63.5-24.5,64.9-18.9z"/>
				<path class="st0" d="M65.3-49c0-1-0.1-1.8-0.3-2.6C65.1-50.8,65.3-49.9,65.3-49c0,8.2-8.1,8.2-8.1,16.3h0
					C57.2-40.8,65.3-40.8,65.3-49z"/>
				<path class="st1" d="M57.2-65.2c0.2,6.8,6.3,8.1,7.7,13.6c0.2,0.8,0.3,1.6,0.3,2.6c0,8.2-8.1,8.2-8.1,16.3h0.6
					c0-3.3,1.8-5.1,3.7-7.1c2-2.1,4.4-4.4,4.4-9.3c0-4.8-2.3-7.1-4.4-9.2c-1.9-1.9-3.7-3.7-3.7-7.1c0,0,0,0,0,0H57.2
					C57.2-65.2,57.2-65.2,57.2-65.2C57.2-65.1,57.2-65.3,57.2-65.2z"/>
				<path class="st1" d="M70.4-58.2C68.3-56.1,66-53.8,66-49c0,4.8,2.3,7.2,4.4,9.3c1.9,1.9,3.7,3.7,3.7,7.1h0.6
					c0-0.8-0.1-1.5-0.2-2.1c0-0.1,0-0.2-0.1-0.3c0,0,0,0,0,0c-0.8-3.3-3.2-5-5.2-7.2c-1.5-1.6-2.6-3.6-2.6-6.7
					c0-8.2,8.1-8.1,8.1-16.3h-0.6c0,0,0,0,0,0C74.1-61.9,72.3-60.1,70.4-58.2z"/>
				<path class="st3" d="M61.5-58.2c2,2.1,4.4,4.4,4.4,9.2c0,4.8-2.3,7.2-4.4,9.3c-1.9,1.9-3.7,3.7-3.7,7.1h0.6c0-2.6,1.6-4.2,3.4-6
					c1.5-1.5,3.3-3.3,4.1-6.2c0.9,2.9,2.6,4.7,4.1,6.2c1.8,1.8,3.3,3.4,3.4,6h0.6c0-3.3-1.8-5.1-3.7-7.1c-2-2.1-4.4-4.4-4.4-9.3
					c0-4.8,2.3-7.1,4.4-9.2c1.9-1.9,3.7-3.7,3.7-7.1c0,0,0,0,0,0h-0.6c0,0,0,0,0,0c0,2.6-1.6,4.2-3.4,6c-1.5,1.5-3.3,3.3-4.1,6.2
					c-0.9-2.9-2.6-4.7-4.1-6.2c-1.8-1.8-3.4-3.4-3.4-6c0,0,0,0,0,0h-0.6c0,0,0,0,0,0C57.8-61.9,59.6-60.1,61.5-58.2z"/>
				<path class="st6" d="M70.1-38.6c-1.5-1.5-3.3-3.3-4.1-6.2c-0.9,2.9-2.6,4.7-4.1,6.2c-1.8,1.8-3.3,3.4-3.4,6h15
					C73.4-35.2,71.9-36.8,70.1-38.6z"/>
				<path class="st6" d="M58.5-65.2c0,2.6,1.6,4.2,3.4,6c1.5,1.5,3.3,3.3,4.1,6.2c0.9-2.9,2.6-4.7,4.1-6.2c1.8-1.8,3.4-3.4,3.4-6
					c0,0,0,0,0,0H58.5C58.5-65.2,58.5-65.2,58.5-65.2z"/>
				<path class="st2" d="M66.7-49c0,3.1,1.2,5,2.6,6.7c1.9,2.2,4.4,3.9,5.2,7.2c0,0,0,0,0,0c0,0.1,0,0.2,0.1,0.3
					c0.1,0.6,0.2,1.3,0.2,2.1h0.6c0-4.8-2.3-7.2-4.4-9.2c-1.9-1.9-3.7-3.7-3.7-7.1c0-3.3,1.8-5.2,3.7-7.1c2-2.1,4.4-4.4,4.4-9.2
					h-0.6c0,0,0,0,0,0C74.7-57.1,66.7-57.1,66.7-49z"/>
				<path class="st2" d="M66.7-48.9c0,3.1,1.2,5,2.6,6.7C67.8-43.9,66.7-45.8,66.7-48.9c0-8.1,8.1-8.2,8.1-16.3c0,0,0,0,0,0h0
					C74.7-57,66.7-57.1,66.7-48.9z"/>
				<path class="st2" d="M65.3-48.9c0-1-0.1-1.9-0.3-2.6c-1.5-5.5-7.6-6.8-7.7-13.6c0-0.1,0,0.1,0,0h-0.6c0,4.8,2.3,7.1,4.4,9.2
					c1.9,1.9,3.7,3.7,3.7,7.1c0,3.3-1.8,5.2-3.7,7.1c-2,2.1-4.4,4.4-4.4,9.2h0.6C57.2-40.8,65.3-40.8,65.3-48.9z"/>
				<path class="st2" d="M64.9-51.6c-1.5-5.6-7.5-6.8-7.7-13.6C57.4-58.4,63.5-57.1,64.9-51.6z"/>
			</g>
		</g>
	</g>
</pattern>
<sodipodi:namedview  id="namedview39" objecttolerance="10" inkscape:zoom="2.4336873" gridtolerance="10" bordercolor="#666666" inkscape:cy="148.16686" showgrid="false" borderopacity="1" guidetolerance="10" inkscape:cx="117.62976" pagecolor="#ffffff" inkscape:pageopacity="0" inkscape:window-x="0" inkscape:window-y="25" inkscape:pageshadow="2" inkscape:window-maximized="1" inkscape:window-height="977" inkscape:current-layer="svg2" inkscape:window-width="1680">
	</sodipodi:namedview>
<g id="Layer_x0020_1">
	<path id="path5" class="st8" d="M-663.2,994.2c0,3.8-3.1,6.9-6.9,6.9H-823c-3.8,0-6.9-3.1-6.9-6.9V765.8c0-3.8,3.1-6.9,6.9-6.9h153
		c3.8,0,6.9,3.1,6.9,6.9v228.4H-663.2z"/>
	<g id="g7">
		<g id="g9">
		</g>
	</g>
	<g id="g15">
	</g>
	<g id="g19">
	</g>
	<g id="g23">
		<g id="g25">
		</g>
	</g>
	<g id="g31">
		<g id="g33">
		</g>
	</g>
</g>
<radialGradient id="SVGID_1_" cx="-331.45" cy="501.95" r="98.5794" gradientTransform="matrix(1 0 0 -1 0 1002.6)" gradientUnits="userSpaceOnUse">
	<stop  offset="0" style="stop-color:#FFFFFF"/>
	<stop  offset="0.9252" style="stop-color:#000000"/>
</radialGradient>
<path class="st9" d="M-259.2,615.7h-144.4c-2.9,0-5.3-2.4-5.3-5.3V390.9c0-2.9,2.4-5.3,5.3-5.3h144.4c2.9,0,5.3,2.4,5.3,5.3v219.4
	C-254,613.3-256.4,615.7-259.2,615.7z"/>
</svg>
