<?xml version="1.0" encoding="utf-8"?>
<!-- Generator: Adobe Illustrator 19.0.0, SVG Export Plug-In . SVG Version: 6.00 Build 0)  -->
<svg version="1.1"
	 id="svg2" xmlns:dc="http://purl.org/dc/elements/1.1/" xmlns:cc="http://creativecommons.org/ns#" xmlns:rdf="http://www.w3.org/1999/02/22-rdf-syntax-ns#" xmlns:svg="http://www.w3.org/2000/svg" xmlns:sodipodi="http://sodipodi.sourceforge.net/DTD/sodipodi-0.dtd" xmlns:inkscape="http://www.inkscape.org/namespaces/inkscape" inkscape:version="0.48.0 r9654" sodipodi:docname="2_of_clubs.svg" inkscape:export-filename="/home/byron/art/cards/final/PNGs/2_of_clubs.png" inkscape:export-xdpi="215.44792" inkscape:export-ydpi="215.44792"
	 xmlns="http://www.w3.org/2000/svg" xmlns:xlink="http://www.w3.org/1999/xlink" x="0px" y="0px" viewBox="-415 379.3 167.1 242.7"
	 style="enable-background:new -415 379.3 167.1 242.7;" xml:space="preserve">
<style type="text/css">
	.st0{fill:none;}
	.st1{fill:#514E49;}
	.st2{fill:#BCBBBC;}
	.st3{fill:#7F7E7C;}
	.st4{fill:none;stroke:#514E49;stroke-miterlimit:1;}
	.st5{fill:none;stroke:#BCBBBC;stroke-miterlimit:1;}
	.st6{fill:#FFFFFF;stroke:#000000;stroke-width:0.5;}
	.st7{fill:url(#Leaves_Tropical);stroke:url(#SVGID_1_);stroke-miterlimit:10;}
</style>
<pattern  x="-415" y="622" width="53.7" height="96.8" patternUnits="userSpaceOnUse" id="Leaves_Tropical" viewBox="26.5 -183.3 53.7 96.8" style="overflow:visible;">
	<g>
		<polygon class="st0" points="26.5,-183.3 80.2,-183.3 80.2,-86.5 26.5,-86.5 		"/>
		<g>
			<path class="st1" d="M79.1-51.3C75.4-58.7,70.3-65,65.9-72c-2-3.2-3.7-7.1-5.5-10.5c-1.9-3.7-3.2-10.2-4.8-14
				c-0.7-1.8-2.1-5-2.5-4.7c-0.4,0.3-3.6,7-4.5,8.7c-2.4,4.7-2.1,6.8-4.7,11.8c-5.3,10.2-11.7,20.4-16.5,30.5
				c-1.8,3.8,1.3,6.2,3,9.5c2.1,4.1,4.8,10.8,7.5,15.5c4.5,7.7,8,16,13.8,23.7c0.8,1,1.6,1.4,2.2,1.5c2,0.3,3.3-4.2,4.8-7
				c1.2-2.3,2.5-4,3-6.5c0.7-3.6,4.9-8.4,6.5-11.8c3.8-7.9,9.8-19.5,11-22C80.2-49.4,80-49.6,79.1-51.3z"/>
			<g>
				<path class="st2" d="M53.7-23.7c0.3-2.8,1.2-2.1,1.2-1.2c-0.1,5.1,0.2,10.2-2.5,14.5c-0.4,0.7-1,3.9,2.5,0.9
					c2.3-2,2-2.1,4.1-4.7c1.8-2.2,4.9-7.3,7.5-11.6c3.5-5.6,6.5-11.6,7.7-16.2c0.9-3.5-0.9-1.5-2.9-0.6c-1.9,0.8-9,0.4-11.6,0.5
					c-2.2,0.1-4.4,2.6-4.4,5.6v7.6c0,0.9-1.6,0.9-1.6,0c0-2,0-8.5,0-8.5c0.3-5.8,6.1-6.8,8.1-6.9c3.2-0.3,9,1.2,12-0.9
					c1.1-0.8,2,0.4,1.7,1.5c-1,3.2,0.5,2.1,1.2-0.8c0.5-2-1-4.5-2.4-8.6c-0.3-0.8-6.1-10.1-8.4-14.6c-3.5-7-7.9-14.9-10.2-20.2
					c-0.7-1.5-1.1-2.8-1.4-3.8c-0.5-2.1-0.7-2.3-1-2.8c-0.4-0.5-0.7-1-1,0.3c-0.4,1.9-1,4-1.9,6.3c-2.7,6.8-7.2,14.5-10.3,20.5
					c-2.5,4.8-6.9,12-8.2,14.6c-1.6,3.1-3,4.1-1.7,8.8c1.5,5.2,2.5,3.9,2,2.4c-1-3-1.1-5.5,1-3.8c2.9,2.2,7.8,1.2,10.4,1
					c4-0.3,7.9,1,8,6c0,0,0,7.4,0,9.4c0,0.9-1.6,0.9-1.6,0v-8.5c0-2-0.7-4.7-3.7-4.7c-3,0-7.4,0.3-10-0.5c-2.5-0.9-4.8-3.5-3.4,1
					c1.4,4.6,3,10.1,6.7,15.6c3.8,5.8,6,9.7,7.3,13.2c1.5,4,2.7,6.1,5.5,7c3,1,5.2,2,2.5-0.6c-0.9-0.9-1.9-0.5-2.8-0.9
					c-1.4-0.6-1.9-1.3-0.9-4c0.4-1.2,0.3-2.2-0.1-2.8c-0.9-1.6-0.7-8.4-0.8-10.8c0-0.9,1-1.4,1.2,1.2c0.3,3.4,0.4,4.6,0.4,4.6
					c0.3,1.7,1.2,1.7,1.4,0C53.5-20.1,53.7-23.7,53.7-23.7z"/>
				<path class="st3" d="M52.6-43.5v-46.7c2,3.3,3.9,9.5,5.3,11.4c1.4,1.9,3,5.2,4,7.2c1.2,2.3,9.7,16.2,11.4,20.8
					c1.1,3.1,0.8,3.7-0.3,4.5c-2.1,1.4-5.4-0.1-7.7-0.3C57.2-47.1,54.9-43.6,52.6-43.5z"/>
				<path class="st4" d="M49.8-86.7c0.5,2.5,1.9,3.9,2.8,4.2"/>
				<path class="st5" d="M54.2-87c0,2.4-1,3.5-1.5,4.6"/>
			</g>
		</g>
		<g>
			<path class="st1" d="M106-99.7c-3.7-7.4-8.8-13.7-13.2-20.8c-2-3.2-3.7-7.1-5.5-10.5c-1.9-3.7-3.2-10.2-4.8-14
				c-0.7-1.8-2.1-5-2.5-4.8c-0.4,0.3-3.6,7-4.5,8.8c-2.4,4.7-2.1,6.8-4.7,11.8c-5.3,10.1-11.7,20.4-16.5,30.5
				c-1.8,3.8,1.3,6.2,3,9.5c2.1,4.1,4.8,10.8,7.5,15.5c4.5,7.7,8,16,13.8,23.7c0.8,1,1.6,1.4,2.2,1.5c2,0.3,3.3-4.2,4.8-7
				c1.2-2.3,2.5-4,3-6.5c0.7-3.6,4.9-8.4,6.5-11.7c3.8-7.9,9.8-19.5,11-22C107.1-97.8,106.8-98,106-99.7z"/>
			<g>
				<path class="st2" d="M80.5-72.1c0.3-2.8,1.2-2.1,1.2-1.2c-0.1,5.1,0.2,10.2-2.5,14.5c-0.4,0.7-1,3.9,2.5,0.9
					c2.3-2,2-2.1,4.1-4.7c1.8-2.2,4.9-7.3,7.5-11.6c3.5-5.6,6.5-11.6,7.7-16.2c0.9-3.5-0.9-1.5-2.9-0.6c-1.9,0.8-9,0.4-11.6,0.5
					c-2.2,0.1-4.4,2.6-4.4,5.6v7.6c0,0.9-1.6,0.9-1.6,0c0-2,0-8.5,0-8.5c0.3-5.8,6.1-6.8,8.1-6.9c3.2-0.3,9,1.2,12-0.9
					c1.1-0.8,2,0.4,1.7,1.5c-1,3.2,0.5,2.1,1.2-0.8c0.5-2-1-4.5-2.4-8.6c-0.3-0.8-6.1-10.1-8.4-14.6c-3.5-7-7.9-14.9-10.2-20.2
					c-0.7-1.5-1.1-2.8-1.4-3.8c-0.5-2.1-0.7-2.3-1-2.8c-0.4-0.5-0.7-1-1,0.3c-0.4,1.9-1,4-1.9,6.3c-2.7,6.8-7.2,14.5-10.3,20.5
					c-2.5,4.8-6.9,12-8.2,14.6c-1.6,3.1-3,4.1-1.7,8.8c1.5,5.2,2.5,3.9,2,2.4c-1-3-1.1-5.5,1-3.8c2.9,2.2,7.8,1.2,10.4,1
					c4-0.3,7.9,1,8,6c0,0,0,7.4,0,9.4c0,0.9-1.6,0.9-1.6,0v-8.5c0-2-0.7-4.7-3.7-4.7c-3,0-7.4,0.3-10-0.5c-2.5-0.9-4.8-3.5-3.4,1
					c1.4,4.6,3,10.1,6.7,15.6c3.8,5.8,6,9.7,7.3,13.2c1.5,4,2.7,6.1,5.5,7c3,1,5.2,2,2.5-0.6c-0.9-0.9-1.9-0.5-2.8-0.9
					c-1.4-0.6-1.9-1.3-0.9-4c0.4-1.2,0.3-2.2-0.1-2.8c-0.9-1.6-0.7-8.4-0.8-10.8c0-0.9,1-1.4,1.2,1.2c0.3,3.4,0.4,4.6,0.4,4.6
					c0.3,1.7,1.2,1.7,1.4,0C80.4-68.5,80.5-72.1,80.5-72.1z"/>
				<path class="st3" d="M79.4-91.9v-46.7c2,3.3,3.9,9.5,5.3,11.4c1.4,1.9,3,5.2,4,7.2c1.2,2.3,9.7,16.2,11.4,20.8
					c1.1,3.1,0.8,3.7-0.3,4.5c-2.1,1.4-5.4-0.1-7.7-0.3C84-95.5,81.8-92,79.4-91.9z"/>
				<path class="st4" d="M60.8-90.8c3.2,4.6,9.6,11.3,15.4,14"/>
				<path class="st4" d="M62.6-90.7c0.8,1.7,1,2.2,1.3,3.9c-1.1,0.1-1.5-0.2-2.3-0.3"/>
				<path class="st4" d="M65.9-89.9c0.6,1.5,1.5,4.6,1,6.2c-1.8,0.3-3.2,0.3-3.8,0.2"/>
				<path class="st4" d="M70.4-89.4c1.1,1.9,2.2,7.5,1.4,9.9c-2,2-4,2.3-5.2,2.6"/>
				<path class="st4" d="M73.7-88.8c1,3.6,1.3,8.2,1.3,11.2c-0.8,2.5-1.7,4.9-4.8,6.7"/>
				<path class="st4" d="M76.7-135.1c0.5,2.5,1.9,3.9,2.8,4.2"/>
				<path class="st4" d="M75-131.3c0.4,9.4,3.8,11.3,4.5,13.5"/>
				<path class="st4" d="M77-121.8c-0.6-0.4-2.4,0.1-5.1-2.9"/>
				<path class="st4" d="M71.8-124.7c-0.1,6.6,2.9,14.4,7.6,18.8"/>
				<path class="st4" d="M68.4-118.2c1.8,3.5,4.9,3.8,6,5.1"/>
				<path class="st4" d="M66.9-115.6c1.6,10.6,9.1,15.7,12.5,17.3"/>
				<path class="st4" d="M70.5-106.1c-2-0.3-5.5-1-7-3"/>
				<path class="st4" d="M63.4-109.3c1.2,7.6,13.9,17.1,16.1,15.8"/>
				<path class="st4" d="M70-99.1c-3.2,0.7-9.6-0.3-11.3-1.7"/>
				<path class="st4" d="M56.8-97c2.8,0.2,5.8-1.2,7.2-2.1"/>
				<path class="st4" d="M60.7-93.7c0.7-1.4,8.6-2.3,14.9-1"/>
				<path class="st5" d="M81-135.4c0,2.4-1,3.5-1.5,4.6"/>
				<path class="st5" d="M83.6-129.2c0.2,6-3.4,9.1-4.1,11.3"/>
				<path class="st5" d="M88-121.5c-0.3,6.4-4.2,11.5-8.5,15.6"/>
				<path class="st5" d="M92-114.5c-1.3,7.6-9,14.6-12.4,16.3"/>
				<path class="st5" d="M88.8-106.9c1.9,0.3,5.1-0.5,6.7-1.5c-1.7,6.9-12.1,14.4-15.9,15"/>
			</g>
		</g>
		<g>
			<path class="st1" d="M52.3-99.7c-3.7-7.4-8.8-13.7-13.2-20.8c-2-3.2-3.7-7.1-5.5-10.5c-1.9-3.7-3.2-10.2-4.7-14
				c-0.7-1.8-2.1-5-2.5-4.8c-0.4,0.3-3.6,7-4.5,8.8c-2.4,4.7-2.1,6.8-4.7,11.8C11.8-119,5.4-108.8,0.5-98.7c-1.8,3.8,1.3,6.2,3,9.5
				C5.6-85,8.3-78.4,11-73.7c4.5,7.7,8,16,13.8,23.7c0.8,1,1.6,1.4,2.2,1.5c2,0.3,3.3-4.2,4.8-7c1.2-2.3,2.5-4,3-6.5
				c0.7-3.6,4.9-8.4,6.5-11.7c3.8-7.9,9.8-19.5,11-22C53.4-97.8,53.1-98,52.3-99.7z"/>
			<g>
				<path class="st2" d="M26.8-72.1c0.3-2.8,1.2-2.1,1.2-1.2c-0.1,5.1,0.2,10.2-2.5,14.5c-0.4,0.7-1,3.9,2.5,0.9
					c2.3-2,2-2.1,4.1-4.7c1.8-2.2,4.9-7.3,7.5-11.6C43-80,46-85.9,47.3-90.5c0.9-3.5-0.9-1.5-2.9-0.6c-1.9,0.8-9,0.4-11.6,0.5
					c-2.2,0.1-4.4,2.6-4.4,5.6v7.6c0,0.9-1.6,0.9-1.6,0c0-2,0-8.5,0-8.5c0.3-5.8,6.1-6.8,8.1-6.9c3.2-0.3,9,1.2,12-0.9
					c1.1-0.8,2,0.4,1.7,1.5c-1,3.2,0.5,2.1,1.2-0.8c0.5-2-1-4.5-2.4-8.6c-0.3-0.8-6.1-10.1-8.4-14.6c-3.5-7-7.9-14.9-10.2-20.2
					c-0.7-1.5-1.1-2.8-1.4-3.8c-0.5-2.1-0.7-2.3-1-2.8c-0.4-0.5-0.7-1-1,0.3c-0.4,1.9-1,4-1.9,6.3c-2.7,6.8-7.2,14.5-10.3,20.5
					c-2.5,4.8-6.9,12-8.2,14.6c-1.6,3.1-3,4.1-1.7,8.8c1.5,5.2,2.5,3.9,2,2.4c-1-3-1.1-5.5,1-3.8c2.9,2.2,7.8,1.2,10.4,1
					c4-0.3,7.9,1,8,6c0,0,0,7.4,0,9.4c0,0.9-1.6,0.9-1.6,0v-8.5c0-2-0.7-4.7-3.7-4.7c-3,0-7.4,0.3-10-0.5c-2.5-0.9-4.8-3.5-3.4,1
					c1.4,4.6,3,10.1,6.7,15.6c3.8,5.8,6,9.7,7.3,13.2c1.5,4,2.7,6.1,5.5,7c3,1,5.2,2,2.5-0.6c-0.9-0.9-1.9-0.5-2.8-0.9
					c-1.4-0.6-1.9-1.3-0.9-4c0.4-1.2,0.3-2.2-0.1-2.8c-0.9-1.6-0.7-8.4-0.8-10.8c0-0.9,1-1.4,1.2,1.2c0.3,3.4,0.4,4.6,0.4,4.6
					c0.3,1.7,1.2,1.7,1.4,0C26.7-68.5,26.8-72.1,26.8-72.1z"/>
				<path class="st3" d="M25.8-91.9v-46.7c2,3.3,3.9,9.5,5.3,11.4c1.4,1.9,3,5.2,4,7.2c1.2,2.3,9.7,16.2,11.4,20.8
					c1.1,3.1,0.8,3.7-0.3,4.5c-2.1,1.4-5.4-0.1-7.7-0.3C30.3-95.5,28.1-92,25.8-91.9z"/>
				<path class="st3" d="M33.1-89.1c-1.1-0.1-3.6,0.5-3.3,5.6c0.3,5.1,0,14-0.2,18.2c-0.1,2.9-4.8,9.1-0.1,3.6
					c4.5-5.2,9-13.9,11-16.9c1.4-2.1,4.3-8.3,5.2-10.1c1.2-2.6,1.2-3-0.4-1.6C43.7-89,34.5-89,33.1-89.1z"/>
				<path class="st5" d="M46.5-90.9C42.2-84.7,37-80.1,30-76.8"/>
				<path class="st5" d="M43.7-89.7c-0.8,1.7-1.2,2.4-1.4,4.2"/>
				<path class="st5" d="M40.4-89.2c-0.6,1.5-1.6,4.9-1.1,6.5c1.8,0.3,2.9,0.3,3.5,0.2"/>
				<path class="st5" d="M36.9-89c-1.1,1.9-1.2,6.1-0.4,8.4c2,2,2.4,2.3,3.6,2.7"/>
				<path class="st5" d="M32.1-88.6C31-85.1,31.6-81,31.6-78c0.9,3.2,2.6,5.8,4.5,6.5"/>
				<path class="st5" d="M27.3-135.4c0,2.4-1,3.5-1.5,4.6"/>
				<path class="st5" d="M30-129.2c0.2,6-3.4,9.1-4.1,11.3"/>
				<path class="st5" d="M28.7-123.2c0.9-0.7,2,0,3.9-1.7"/>
				<path class="st5" d="M34.3-121.5c-0.3,6.4-4.2,11.5-8.5,15.6"/>
				<path class="st5" d="M37-116.4c-2.2,1.9-4.3,2.3-5.4,3.6"/>
				<path class="st5" d="M38.3-114.5c-1.3,7.6-9,14.6-12.4,16.3"/>
				<path class="st5" d="M35.1-106.9c1.9,0.3,5.1-0.5,6.7-1.5c-1.7,6.9-12.1,14.4-15.9,15"/>
				<path class="st5" d="M35.5-99.1c3.2,0.7,8.6-0.3,10.2-1.8"/>
				<path class="st5" d="M47.1-96.2c-2.4-1-2.7-2.5-5.7-3"/>
			</g>
		</g>
		<g>
			<path class="st1" d="M79.1-148c-3.7-7.4-8.8-13.7-13.2-20.8c-2-3.2-3.7-7.1-5.5-10.5c-1.9-3.7-3.2-10.2-4.8-14
				c-0.7-1.8-2.1-5-2.5-4.8c-0.4,0.3-3.6,7-4.5,8.8c-2.4,4.7-2.1,6.8-4.7,11.8c-5.3,10.1-11.7,20.4-16.5,30.5
				c-1.8,3.8,1.3,6.2,3,9.5c2.1,4.1,4.8,10.8,7.5,15.5c4.5,7.7,8,16,13.8,23.8c0.8,1,1.6,1.4,2.2,1.5c2,0.3,3.3-4.2,4.8-7
				c1.2-2.3,2.5-4,3-6.5c0.7-3.6,4.9-8.4,6.5-11.8c3.8-7.9,9.8-19.5,11-22C80.2-146.2,80-146.4,79.1-148z"/>
			<g>
				<path class="st2" d="M53.7-120.5c0.3-2.8,1.2-2.1,1.2-1.2c-0.1,5.1,0.2,10.2-2.5,14.5c-0.4,0.7-1,3.9,2.5,0.9
					c2.3-2,2-2.1,4.1-4.7c1.8-2.2,4.9-7.3,7.5-11.6c3.5-5.6,6.5-11.6,7.7-16.2c0.9-3.5-0.9-1.5-2.9-0.6c-1.9,0.8-9,0.4-11.6,0.5
					c-2.2,0.1-4.4,2.6-4.4,5.6v7.6c0,0.9-1.6,0.9-1.6,0c0-2,0-8.5,0-8.5c0.3-5.8,6.1-6.8,8.1-6.9c3.2-0.3,9,1.2,12-0.9
					c1.1-0.8,2,0.4,1.7,1.5c-1,3.2,0.5,2.1,1.2-0.8c0.5-2-1-4.5-2.4-8.6c-0.3-0.8-6.1-10.1-8.4-14.6c-3.5-7-7.9-14.9-10.2-20.2
					c-0.7-1.5-1.1-2.8-1.4-3.8c-0.5-2.1-0.7-2.3-1-2.8c-0.4-0.5-0.7-1-1,0.3c-0.4,1.9-1,4-1.9,6.3c-2.7,6.8-7.2,14.5-10.3,20.5
					c-2.5,4.8-6.9,12-8.2,14.6c-1.6,3.1-3,4.1-1.7,8.8c1.5,5.2,2.5,3.9,2,2.4c-1-3-1.1-5.5,1-3.8c2.9,2.2,7.8,1.2,10.4,1
					c4-0.3,7.9,1,8,6c0,0,0,7.4,0,9.4c0,0.9-1.6,0.9-1.6,0v-8.5c0-2-0.7-4.7-3.7-4.7c-3,0-7.4,0.3-10-0.5c-2.5-0.9-4.8-3.5-3.4,1
					c1.4,4.6,3,10.1,6.7,15.6c3.8,5.8,6,9.7,7.3,13.2c1.5,4,2.7,6.1,5.5,7c3,1,5.2,2,2.5-0.6c-0.9-0.9-1.9-0.5-2.8-0.9
					c-1.4-0.6-1.9-1.3-0.9-4c0.4-1.2,0.3-2.2-0.1-2.8c-0.9-1.6-0.7-8.4-0.8-10.8c0-0.9,1-1.4,1.2,1.2c0.3,3.4,0.4,4.6,0.4,4.6
					c0.3,1.7,1.2,1.7,1.4,0C53.5-116.9,53.7-120.5,53.7-120.5z"/>
				<path class="st3" d="M52.6-140.2V-187c2,3.3,3.9,9.5,5.3,11.4c1.4,1.9,3,5.2,4,7.2c1.2,2.3,9.7,16.2,11.4,20.8
					c1.1,3.1,0.8,3.7-0.3,4.5c-2.1,1.4-5.4-0.1-7.7-0.3C57.2-143.9,54.9-140.4,52.6-140.2z"/>
				<path class="st3" d="M60-137.5c-1.1-0.1-3.6,0.5-3.3,5.6c0.3,5.1,0,14-0.2,18.2c-0.1,2.9-4.8,9.1-0.1,3.6
					c4.5-5.2,9-13.9,11-16.9c1.4-2.1,4.3-8.3,5.2-10.1c1.2-2.6,1.2-3-0.4-1.6C70.5-137.3,61.4-137.4,60-137.5z"/>
				<path class="st4" d="M33.9-139.2c3.2,4.6,9.6,11.3,15.4,14"/>
				<path class="st4" d="M35.8-139c0.8,1.7,1,2.2,1.3,3.9c-1.1,0.1-1.5-0.2-2.3-0.3"/>
				<path class="st4" d="M39.1-138.3c0.6,1.5,1.5,4.6,1,6.2c-1.8,0.3-3.2,0.3-3.8,0.2"/>
				<path class="st4" d="M43.5-137.8c1.1,1.9,2.2,7.5,1.4,9.9c-2,2-4,2.3-5.2,2.6"/>
				<path class="st4" d="M46.9-137.2c1,3.6,1.3,8.2,1.3,11.2c-0.8,2.5-1.7,4.9-4.8,6.7"/>
				<path class="st4" d="M46.3-121.6c0.9,2.5,1.3,5.9,0.4,8.5"/>
				<path class="st4" d="M49.8-183.5c0.5,2.5,1.9,3.9,2.8,4.2"/>
				<path class="st4" d="M48.2-179.6c0.4,9.4,3.8,11.3,4.5,13.5"/>
				<path class="st4" d="M50.1-170.2c-0.6-0.4-2.4,0.1-5.1-2.9"/>
				<path class="st4" d="M45-173c-0.1,6.6,2.9,14.4,7.6,18.8"/>
				<path class="st4" d="M41.5-166.6c1.8,3.5,4.9,3.8,6,5.1"/>
				<path class="st4" d="M40.1-164c1.6,10.6,9.1,15.7,12.5,17.3"/>
				<path class="st4" d="M43.7-154.5c-2-0.3-5.5-1-7-3"/>
				<path class="st4" d="M36.6-157.6c1.2,7.6,13.9,17.1,16.1,15.8"/>
				<path class="st4" d="M43.1-147.5c-3.2,0.7-9.6-0.3-11.3-1.7"/>
				<path class="st4" d="M30-145.4c2.8,0.2,5.8-1.2,7.2-2.1"/>
				<path class="st4" d="M33.9-142c0.7-1.4,8.6-2.3,14.9-1"/>
				<path class="st5" d="M73.3-139.3c-4.3,6.2-9.4,10.8-16.5,14.2"/>
				<path class="st5" d="M70.5-138.1c-0.8,1.7-1.2,2.4-1.4,4.2"/>
				<path class="st5" d="M67.3-137.6c-0.6,1.5-1.6,4.9-1.1,6.5c1.8,0.3,2.9,0.3,3.5,0.2"/>
				<path class="st5" d="M63.8-137.4c-1.1,1.9-1.2,6.1-0.4,8.4c2,2,2.4,2.3,3.6,2.7"/>
				<path class="st5" d="M58.9-137c-1.1,3.6-0.4,7.7-0.4,10.7c0.9,3.2,2.6,5.8,4.5,6.5"/>
				<path class="st5" d="M60.1-122.6c-0.3,0.8-0.4,5.6-0.3,7.8"/>
				<path class="st5" d="M54.2-183.8c0,2.4-1,3.5-1.5,4.6"/>
				<path class="st5" d="M56.8-177.5c0.2,6-3.4,9.1-4.1,11.3"/>
				<path class="st5" d="M55.6-171.6c0.9-0.7,2,0,3.9-1.7"/>
				<path class="st5" d="M61.2-169.8c-0.3,6.4-4.2,11.5-8.5,15.6"/>
				<path class="st5" d="M63.9-164.8c-2.2,1.9-4.3,2.3-5.4,3.6"/>
				<path class="st5" d="M65.1-162.9c-1.3,7.6-9,14.6-12.4,16.3"/>
				<path class="st5" d="M62-155.3c1.9,0.3,5.1-0.5,6.7-1.5c-1.7,6.9-12.1,14.4-15.9,15"/>
				<path class="st5" d="M62.3-147.5c3.2,0.7,8.6-0.3,10.2-1.8"/>
				<path class="st5" d="M74-144.6c-2.4-1-2.7-2.5-5.7-3"/>
			</g>
		</g>
		<g>
			<path class="st1" d="M106-196.4c-3.7-7.4-8.8-13.7-13.2-20.8c-2-3.2-3.7-7.1-5.5-10.5c-1.9-3.7-3.2-10.2-4.8-14
				c-0.7-1.8-2.1-5-2.5-4.8c-0.4,0.3-3.6,7-4.5,8.8c-2.4,4.7-2.1,6.8-4.7,11.8c-5.3,10.1-11.7,20.4-16.5,30.5
				c-1.8,3.8,1.3,6.2,3,9.5c2.1,4.1,4.8,10.8,7.5,15.5c4.5,7.7,8,16,13.8,23.8c0.8,1,1.6,1.4,2.2,1.5c2,0.3,3.3-4.2,4.8-7
				c1.2-2.3,2.5-4,3-6.5c0.7-3.6,4.9-8.4,6.5-11.8c3.8-7.9,9.8-19.5,11-22C107.1-194.6,106.8-194.8,106-196.4z"/>
			<g>
				<path class="st2" d="M80.5-168.9c0.3-2.8,1.2-2.1,1.2-1.2c-0.1,5.1,0.2,10.2-2.5,14.5c-0.4,0.7-1,3.9,2.5,0.9
					c2.3-2,2-2.1,4.1-4.7c1.8-2.2,4.9-7.3,7.5-11.6c3.5-5.6,6.5-11.6,7.7-16.2c0.9-3.5-0.9-1.5-2.9-0.6c-1.9,0.8-9,0.4-11.6,0.5
					c-2.2,0.1-4.4,2.6-4.4,5.6v7.6c0,0.9-1.6,0.9-1.6,0c0-2,0-8.5,0-8.5c0.3-5.8,6.1-6.8,8.1-6.9c3.2-0.3,9,1.2,12-0.9
					c1.1-0.8,2,0.4,1.7,1.5c-1,3.2,0.5,2.1,1.2-0.8c0.5-2-1-4.5-2.4-8.6c-0.3-0.8-6.1-10.1-8.4-14.6c-3.5-7-7.9-14.9-10.2-20.2
					c-0.7-1.5-1.1-2.8-1.4-3.8c-0.5-2.1-0.7-2.3-1-2.8c-0.4-0.5-0.7-1-1,0.3c-0.4,1.9-1,4-1.9,6.3c-2.7,6.8-7.2,14.5-10.3,20.5
					c-2.5,4.8-6.9,12-8.2,14.6c-1.6,3.1-3,4.1-1.7,8.8c1.5,5.2,2.5,3.9,2,2.4c-1-3-1.1-5.5,1-3.8c2.9,2.2,7.8,1.2,10.4,1
					c4-0.3,7.9,1,8,6c0,0,0,7.4,0,9.4c0,0.9-1.6,0.9-1.6,0v-8.5c0-2-0.7-4.7-3.7-4.7c-3,0-7.4,0.3-10-0.5c-2.5-0.9-4.8-3.5-3.4,1
					c1.4,4.6,3,10.1,6.7,15.6c3.8,5.8,6,9.7,7.3,13.2c1.5,4,2.7,6.1,5.5,7c3,1,5.2,2,2.5-0.6c-0.9-0.9-1.9-0.5-2.8-0.9
					c-1.4-0.6-1.9-1.3-0.9-4c0.4-1.2,0.3-2.2-0.1-2.8c-0.9-1.6-0.7-8.4-0.8-10.8c0-0.9,1-1.4,1.2,1.2c0.3,3.4,0.4,4.6,0.4,4.6
					c0.3,1.7,1.2,1.7,1.4,0C80.4-165.3,80.5-168.9,80.5-168.9z"/>
				<path class="st4" d="M60.8-187.6c3.2,4.6,9.6,11.3,15.4,14"/>
				<path class="st4" d="M62.6-187.4c0.8,1.7,1,2.2,1.3,3.9c-1.1,0.1-1.5-0.2-2.3-0.3"/>
				<path class="st4" d="M65.9-186.6c0.6,1.5,1.5,4.6,1,6.2c-1.8,0.3-3.2,0.3-3.8,0.2"/>
				<path class="st4" d="M70.4-186.2c1.1,1.9,2.2,7.5,1.4,9.9c-2,2-4,2.3-5.2,2.6"/>
				<path class="st4" d="M73.7-185.6c1,3.6,1.3,8.2,1.3,11.2c-0.8,2.5-1.7,4.9-4.8,6.7"/>
				<path class="st4" d="M73.1-169.9c0.9,2.5,1.3,5.9,0.4,8.5"/>
			</g>
		</g>
		<g>
			<path class="st1" d="M52.3-196.4c-3.7-7.4-8.8-13.7-13.2-20.8c-2-3.2-3.7-7.1-5.5-10.5c-1.9-3.7-3.2-10.2-4.7-14
				c-0.7-1.8-2.1-5-2.5-4.8c-0.4,0.3-3.6,7-4.5,8.8c-2.4,4.7-2.1,6.8-4.7,11.8c-5.3,10.1-11.7,20.4-16.5,30.5
				c-1.8,3.8,1.3,6.2,3,9.5c2.1,4.1,4.8,10.8,7.5,15.5c4.5,7.7,8,16,13.8,23.8c0.8,1,1.6,1.4,2.2,1.5c2,0.3,3.3-4.2,4.8-7
				c1.2-2.3,2.5-4,3-6.5c0.7-3.6,4.9-8.4,6.5-11.8c3.8-7.9,9.8-19.5,11-22C53.4-194.6,53.1-194.8,52.3-196.4z"/>
			<g>
				<path class="st2" d="M26.8-168.9c0.3-2.8,1.2-2.1,1.2-1.2c-0.1,5.1,0.2,10.2-2.5,14.5c-0.4,0.7-1,3.9,2.5,0.9
					c2.3-2,2-2.1,4.1-4.7c1.8-2.2,4.9-7.3,7.5-11.6c3.5-5.6,6.5-11.6,7.7-16.2c0.9-3.5-0.9-1.5-2.9-0.6c-1.9,0.8-9,0.4-11.6,0.5
					c-2.2,0.1-4.4,2.6-4.4,5.6v7.6c0,0.9-1.6,0.9-1.6,0c0-2,0-8.5,0-8.5c0.3-5.8,6.1-6.8,8.1-6.9c3.2-0.3,9,1.2,12-0.9
					c1.1-0.8,2,0.4,1.7,1.5c-1,3.2,0.5,2.1,1.2-0.8c0.5-2-1-4.5-2.4-8.6c-0.3-0.8-6.1-10.1-8.4-14.6c-3.5-7-7.9-14.9-10.2-20.2
					c-0.7-1.5-1.1-2.8-1.4-3.8c-0.5-2.1-0.7-2.3-1-2.8c-0.4-0.5-0.7-1-1,0.3c-0.4,1.9-1,4-1.9,6.3c-2.7,6.8-7.2,14.5-10.3,20.5
					c-2.5,4.8-6.9,12-8.2,14.6c-1.6,3.1-3,4.1-1.7,8.8c1.5,5.2,2.5,3.9,2,2.4c-1-3-1.1-5.5,1-3.8c2.9,2.2,7.8,1.2,10.4,1
					c4-0.3,7.9,1,8,6c0,0,0,7.4,0,9.4c0,0.9-1.6,0.9-1.6,0v-8.5c0-2-0.7-4.7-3.7-4.7c-3,0-7.4,0.3-10-0.5c-2.5-0.9-4.8-3.5-3.4,1
					c1.4,4.6,3,10.1,6.7,15.6c3.8,5.8,6,9.7,7.3,13.2c1.5,4,2.7,6.1,5.5,7c3,1,5.2,2,2.5-0.6c-0.9-0.9-1.9-0.5-2.8-0.9
					c-1.4-0.6-1.9-1.3-0.9-4c0.4-1.2,0.3-2.2-0.1-2.8c-0.9-1.6-0.7-8.4-0.8-10.8c0-0.9,1-1.4,1.2,1.2c0.3,3.4,0.4,4.6,0.4,4.6
					c0.3,1.7,1.2,1.7,1.4,0C26.7-165.3,26.8-168.9,26.8-168.9z"/>
				<path class="st3" d="M33.1-185.9c-1.1-0.1-3.6,0.5-3.3,5.6c0.3,5.1,0,14-0.2,18.2c-0.1,2.9-4.8,9.1-0.1,3.6
					c4.5-5.2,9-13.9,11-16.9c1.4-2.1,4.3-8.3,5.2-10.1c1.2-2.6,1.2-3-0.4-1.6C43.7-185.7,34.5-185.8,33.1-185.9z"/>
				<path class="st5" d="M46.5-187.7c-4.3,6.2-9.4,10.8-16.5,14.2"/>
				<path class="st5" d="M43.7-186.5c-0.8,1.7-1.2,2.4-1.4,4.2"/>
				<path class="st5" d="M40.4-186c-0.6,1.5-1.6,4.9-1.1,6.5c1.8,0.3,2.9,0.3,3.5,0.2"/>
				<path class="st5" d="M36.9-185.8c-1.1,1.9-1.2,6.1-0.4,8.4c2,2,2.4,2.3,3.6,2.7"/>
				<path class="st5" d="M32.1-185.4c-1.1,3.6-0.4,7.7-0.4,10.7c0.9,3.2,2.6,5.8,4.5,6.5"/>
				<path class="st5" d="M33.3-171c-0.3,0.8-0.4,5.6-0.3,7.8"/>
			</g>
		</g>
	</g>
</pattern>
<sodipodi:namedview  id="namedview39" objecttolerance="10" inkscape:zoom="2.4336873" gridtolerance="10" bordercolor="#666666" inkscape:cy="148.16686" showgrid="false" borderopacity="1" guidetolerance="10" inkscape:cx="117.62976" pagecolor="#ffffff" inkscape:pageopacity="0" inkscape:window-x="0" inkscape:window-y="25" inkscape:pageshadow="2" inkscape:window-maximized="1" inkscape:window-height="977" inkscape:current-layer="svg2" inkscape:window-width="1680">
	</sodipodi:namedview>
<g id="Layer_x0020_1">
	<path id="path5" class="st6" d="M-663.2,994.2c0,3.8-3.1,6.9-6.9,6.9H-823c-3.8,0-6.9-3.1-6.9-6.9V765.8c0-3.8,3.1-6.9,6.9-6.9h153
		c3.8,0,6.9,3.1,6.9,6.9v228.4H-663.2z"/>
	<g id="g7">
		<g id="g9">
		</g>
	</g>
	<g id="g15">
	</g>
	<g id="g19">
	</g>
	<g id="g23">
		<g id="g25">
		</g>
	</g>
	<g id="g31">
		<g id="g33">
		</g>
	</g>
</g>
<radialGradient id="SVGID_1_" cx="-331.45" cy="501.95" r="98.5794" gradientTransform="matrix(1 0 0 -1 0 1002.6)" gradientUnits="userSpaceOnUse">
	<stop  offset="0" style="stop-color:#FFFFFF"/>
	<stop  offset="0.9252" style="stop-color:#000000"/>
</radialGradient>
<path class="st7" d="M-259.2,615.7h-144.4c-2.9,0-5.3-2.4-5.3-5.3V390.9c0-2.9,2.4-5.3,5.3-5.3h144.4c2.9,0,5.3,2.4,5.3,5.3v219.4
	C-254,613.3-256.4,615.7-259.2,615.7z"/>
</svg>
