<?xml version="1.0" encoding="utf-8"?>
<!-- Generator: Adobe Illustrator 19.0.0, SVG Export Plug-In . SVG Version: 6.00 Build 0)  -->
<svg version="1.1"
	 id="svg2" xmlns:dc="http://purl.org/dc/elements/1.1/" xmlns:cc="http://creativecommons.org/ns#" xmlns:rdf="http://www.w3.org/1999/02/22-rdf-syntax-ns#" xmlns:svg="http://www.w3.org/2000/svg" xmlns:sodipodi="http://sodipodi.sourceforge.net/DTD/sodipodi-0.dtd" xmlns:inkscape="http://www.inkscape.org/namespaces/inkscape" inkscape:version="0.48.0 r9654" sodipodi:docname="2_of_clubs.svg" inkscape:export-filename="/home/byron/art/cards/final/PNGs/2_of_clubs.png" inkscape:export-xdpi="215.44792" inkscape:export-ydpi="215.44792"
	 xmlns="http://www.w3.org/2000/svg" xmlns:xlink="http://www.w3.org/1999/xlink" x="0px" y="0px" viewBox="-415 379.3 167.1 242.7"
	 style="enable-background:new -415 379.3 167.1 242.7;" xml:space="preserve">
<style type="text/css">
	.st0{fill:none;}
	.st1{fill:none;stroke:#616985;stroke-width:1.75;}
	.st2{fill:#CFCBB5;}
	.st3{fill:#FFFFFF;stroke:#000000;stroke-width:0.5;}
	.st4{fill:url(#Squares_Japanese_Color);stroke:url(#SVGID_1_);stroke-miterlimit:10;}
</style>
<pattern  x="-415" y="622" width="46.7" height="46.7" patternUnits="userSpaceOnUse" id="Squares_Japanese_Color" viewBox="22.4 -69.1 46.7 46.7" style="overflow:visible;">
	<g>
		<polygon class="st0" points="22.4,-69.1 69.1,-69.1 69.1,-22.4 22.4,-22.4 		"/>
		<g>
			<polyline class="st1" points="47.6,-22.4 47.6,-0.9 69.1,-0.9 			"/>
			<polyline class="st1" points="51.3,-22.4 51.3,-4.6 69.1,-4.6 			"/>
			<polyline class="st1" points="55,-22.4 55,-8.4 69.1,-8.4 			"/>
		</g>
		<g>
			<polyline class="st1" points="0.9,-22.4 0.9,-0.9 22.4,-0.9 			"/>
		</g>
		<g>
			<polygon class="st2" points="22.4,-22.4 22.4,-69.1 69.1,-69.1 69.1,-22.4 			"/>
			<polyline class="st1" points="43.9,-22.4 43.9,-43.9 22.4,-43.9 			"/>
			<polyline class="st1" points="69.1,-43.9 47.6,-43.9 47.6,-22.4 			"/>
			<polyline class="st1" points="22.4,-47.6 43.9,-47.6 43.9,-69.1 			"/>
			<polyline class="st1" points="47.6,-69.1 47.6,-47.6 69.1,-47.6 			"/>
			<polyline class="st1" points="40.2,-22.4 40.2,-40.2 22.4,-40.2 			"/>
			<polyline class="st1" points="69.1,-40.2 51.3,-40.2 51.3,-22.4 			"/>
			<polyline class="st1" points="22.4,-51.3 40.2,-51.3 40.2,-69.1 			"/>
			<polyline class="st1" points="51.3,-69.1 51.3,-51.3 69.1,-51.3 			"/>
			<polyline class="st1" points="36.4,-22.4 36.4,-36.4 22.4,-36.4 			"/>
			<polyline class="st1" points="69.1,-36.4 55,-36.4 55,-22.4 			"/>
			<polyline class="st1" points="22.4,-55 36.4,-55 36.4,-69.1 			"/>
			<polyline class="st1" points="55,-69.1 55,-55 69.1,-55 			"/>
			<polygon class="st1" points="67.2,-24.2 67.2,-67.2 24.2,-67.2 24.2,-24.2 			"/>
			<polygon class="st1" points="63.5,-28 63.5,-63.5 28,-63.5 28,-28 			"/>
			<polygon class="st1" points="59.8,-31.7 59.8,-59.8 31.7,-59.8 31.7,-31.7 			"/>
		</g>
		<g>
			<polyline class="st1" points="22.4,-43.9 0.9,-43.9 0.9,-22.4 			"/>
			<polyline class="st1" points="0.9,-69.1 0.9,-47.6 22.4,-47.6 			"/>
			<polyline class="st1" points="22.4,-40.2 4.6,-40.2 4.6,-22.4 			"/>
			<polyline class="st1" points="22.4,-36.4 8.4,-36.4 8.4,-22.4 			"/>
		</g>
		<g>
			<polyline class="st1" points="43.9,-69.1 43.9,-90.6 22.4,-90.6 			"/>
			<polyline class="st1" points="69.1,-90.6 47.6,-90.6 47.6,-69.1 			"/>
			<polyline class="st1" points="40.2,-69.1 40.2,-86.8 22.4,-86.8 			"/>
			<polyline class="st1" points="69.1,-86.8 51.3,-86.8 51.3,-69 			"/>
			<polyline class="st1" points="36.4,-69 36.4,-83.1 22.4,-83.1 			"/>
			<polyline class="st1" points="69.1,-83.1 55,-83.1 55,-69.1 			"/>
		</g>
		<g>
			<polyline class="st1" points="22.4,-90.6 0.9,-90.6 0.9,-69.1 			"/>
			<polyline class="st1" points="22.4,-86.8 4.6,-86.8 4.6,-69 			"/>
			<polyline class="st1" points="22.4,-83.1 8.4,-83.1 8.4,-69.1 			"/>
		</g>
	</g>
</pattern>
<sodipodi:namedview  id="namedview39" objecttolerance="10" inkscape:zoom="2.4336873" gridtolerance="10" bordercolor="#666666" inkscape:cy="148.16686" showgrid="false" borderopacity="1" guidetolerance="10" inkscape:cx="117.62976" pagecolor="#ffffff" inkscape:pageopacity="0" inkscape:window-x="0" inkscape:window-y="25" inkscape:pageshadow="2" inkscape:window-maximized="1" inkscape:window-height="977" inkscape:current-layer="svg2" inkscape:window-width="1680">
	</sodipodi:namedview>
<g id="Layer_x0020_1">
	<path id="path5" class="st3" d="M-663.2,994.2c0,3.8-3.1,6.9-6.9,6.9H-823c-3.8,0-6.9-3.1-6.9-6.9V765.8c0-3.8,3.1-6.9,6.9-6.9h153
		c3.8,0,6.9,3.1,6.9,6.9v228.4H-663.2z"/>
	<g id="g7">
		<g id="g9">
		</g>
	</g>
	<g id="g15">
	</g>
	<g id="g19">
	</g>
	<g id="g23">
		<g id="g25">
		</g>
	</g>
	<g id="g31">
		<g id="g33">
		</g>
	</g>
</g>
<radialGradient id="SVGID_1_" cx="-331.45" cy="501.95" r="98.5794" gradientTransform="matrix(1 0 0 -1 0 1002.6)" gradientUnits="userSpaceOnUse">
	<stop  offset="0" style="stop-color:#FFFFFF"/>
	<stop  offset="0.9252" style="stop-color:#000000"/>
</radialGradient>
<path class="st4" d="M-259.2,615.7h-144.4c-2.9,0-5.3-2.4-5.3-5.3V390.9c0-2.9,2.4-5.3,5.3-5.3h144.4c2.9,0,5.3,2.4,5.3,5.3v219.4
	C-254,613.3-256.4,615.7-259.2,615.7z"/>
</svg>
