<?xml version="1.0" encoding="utf-8"?>
<!-- Generator: Adobe Illustrator 19.0.0, SVG Export Plug-In . SVG Version: 6.00 Build 0)  -->
<svg version="1.1"
	 id="svg2" xmlns:dc="http://purl.org/dc/elements/1.1/" xmlns:cc="http://creativecommons.org/ns#" xmlns:rdf="http://www.w3.org/1999/02/22-rdf-syntax-ns#" xmlns:svg="http://www.w3.org/2000/svg" xmlns:sodipodi="http://sodipodi.sourceforge.net/DTD/sodipodi-0.dtd" xmlns:inkscape="http://www.inkscape.org/namespaces/inkscape" inkscape:version="0.48.0 r9654" sodipodi:docname="2_of_clubs.svg" inkscape:export-filename="/home/byron/art/cards/final/PNGs/2_of_clubs.png" inkscape:export-xdpi="215.44792" inkscape:export-ydpi="215.44792"
	 xmlns="http://www.w3.org/2000/svg" xmlns:xlink="http://www.w3.org/1999/xlink" x="0px" y="0px" viewBox="-415 379.3 167.1 242.7"
	 style="enable-background:new -415 379.3 167.1 242.7;" xml:space="preserve">
<style type="text/css">
	.st0{fill:none;}
	.st1{fill:#CEA291;}
	.st2{fill:#DFDAB6;}
	.st3{fill:#43372E;}
	.st4{fill:#FFFFFF;stroke:#000000;stroke-width:0.5;}
	.st5{fill:url(#Arrows_Arabian_Color);stroke:url(#SVGID_1_);stroke-miterlimit:10;}
</style>
<pattern  x="-415" y="622" width="54.4" height="81.6" patternUnits="userSpaceOnUse" id="Arrows_Arabian_Color" viewBox="22.4 -112 54.4 81.6" style="overflow:visible;">
	<g>
		<polygon class="st0" points="22.4,-112 76.8,-112 76.8,-30.4 22.4,-30.4 		"/>
		<g>
			<polygon class="st1" points="72.5,-29.8 75.2,-31.2 75.2,-34.7 78.4,-34.7 78.4,-31.2 96,-22.4 96,-28.8 99.2,-30.4 99.2,-19.2 
				88,-13.6 88,-16.8 94.4,-20 76.8,-28.8 72.5,-26.7 			"/>
		</g>
		<g>
			<polygon class="st1" points="78.4,-34.7 78.4,-31.2 81.1,-29.8 81.2,-26.6 76.8,-28.8 59.2,-20 65.6,-16.8 65.6,-13.6 
				54.4,-19.2 54.4,-30.4 57.6,-28.8 57.6,-22.4 75.2,-31.2 75.2,-34.7 			"/>
			<polygon class="st2" points="34.2,-34.7 32,-33.6 38.4,-30.4 38.4,-27.2 27.2,-32.8 27.2,-34.7 			"/>
			<polygon class="st2" points="72,-34.7 72,-32.8 60.8,-27.2 60.8,-30.4 67.2,-33.6 65,-34.7 			"/>
			<polygon class="st2" points="49.6,-39.2 60.8,-33.6 57.6,-32 51.2,-35.2 51.2,-17.6 68.8,-8.8 68.8,-15.2 72,-16.8 72,-5.6 
				60.8,0 60.8,-3.2 67.2,-6.4 49.6,-15.2 32,-6.4 38.4,-3.2 38.4,0 27.2,-5.6 27.2,-16.8 30.4,-15.2 30.4,-8.8 48,-17.6 48,-35.2 
				41.6,-32 38.4,-33.6 			"/>
			<polygon class="st1" points="18.1,-29.8 20.8,-31.2 20.8,-34.7 24,-34.7 24,-31.2 41.6,-22.4 41.6,-28.8 44.8,-30.4 44.8,-19.2 
				33.6,-13.6 33.6,-16.8 40,-20 22.4,-28.8 18.1,-26.7 			"/>
		</g>
		<g>
			<polygon class="st1" points="24,-34.7 24,-31.2 26.7,-29.8 26.8,-26.6 22.4,-28.8 4.8,-20 11.2,-16.8 11.2,-13.6 0,-19.2 
				0,-30.4 3.2,-28.8 3.2,-22.4 20.8,-31.2 20.8,-34.7 			"/>
		</g>
		<g>
			<polygon class="st1" points="72.5,-111.4 75.2,-112.8 75.2,-116.3 78.4,-116.3 78.4,-112.8 96,-104 96,-110.4 99.2,-112 
				99.2,-100.8 88,-95.2 88,-98.4 94.4,-101.6 76.8,-110.4 72.5,-108.2 			"/>
			<polygon class="st2" points="72.5,-84.2 75.2,-85.6 75.2,-103.2 72.5,-101.8 72.5,-105 76.8,-107.2 88,-101.6 84.8,-100 
				78.4,-103.2 78.4,-85.6 96,-76.8 96,-83.2 99.2,-84.8 99.2,-73.6 88,-68 88,-71.2 94.4,-74.4 76.8,-83.2 72.5,-81.1 			"/>
			<polygon class="st2" points="72.5,-57 75.2,-58.4 75.2,-76 72.5,-74.6 72.5,-77.9 76.8,-80 88,-74.4 84.8,-72.8 78.4,-76 
				78.4,-58.4 96,-49.6 96,-56 99.2,-57.6 99.2,-46.4 88,-40.8 88,-44 94.4,-47.2 76.8,-56 72.5,-53.9 			"/>
			<polygon class="st1" points="72.5,-26.6 76.8,-28.8 82.3,-26.1 88.7,-26.1 78.4,-31.2 78.4,-48.8 84.8,-45.6 88,-47.2 
				76.8,-52.8 72.5,-50.6 72.4,-47.4 75.2,-48.8 75.2,-31.2 72.5,-29.8 			"/>
		</g>
		<g>
			<polygon class="st3" points="22.4,-30.4 22.4,-112 76.8,-112 76.8,-30.4 			"/>
			<polygon class="st1" points="78.4,-116.3 78.4,-112.8 81.1,-111.4 81.2,-108.2 76.8,-110.4 59.2,-101.6 65.6,-98.4 65.6,-95.2 
				54.4,-100.8 54.4,-112 57.6,-110.4 57.6,-104 75.2,-112.8 75.2,-116.3 			"/>
			<polygon class="st2" points="34.2,-116.3 32,-115.2 38.4,-112 38.4,-108.8 27.2,-114.4 27.2,-116.3 			"/>
			<polygon class="st2" points="72,-116.3 72,-114.4 60.8,-108.8 60.8,-112 67.2,-115.2 65,-116.3 			"/>
			<polygon class="st2" points="81.1,-101.8 78.4,-103.2 78.4,-85.6 81.2,-84.2 81.1,-81 76.8,-83.2 59.2,-74.4 65.6,-71.2 
				65.6,-68 54.4,-73.6 54.4,-84.8 57.6,-83.2 57.6,-76.8 75.2,-85.6 75.2,-103.2 68.8,-100 65.6,-101.6 76.8,-107.2 81.1,-105 			
				"/>
			<polygon class="st2" points="49.6,-120.8 60.8,-115.2 57.6,-113.6 51.2,-116.8 51.2,-99.2 68.8,-90.4 68.8,-96.8 72,-98.4 
				72,-87.2 60.8,-81.6 60.8,-84.8 67.2,-88 49.6,-96.8 32,-88 38.4,-84.8 38.4,-81.6 27.2,-87.2 27.2,-98.4 30.4,-96.8 30.4,-90.4 
				48,-99.2 48,-116.8 41.6,-113.6 38.4,-115.2 			"/>
			<polygon class="st1" points="18.1,-111.4 20.8,-112.8 20.8,-116.3 24,-116.3 24,-112.8 41.6,-104 41.6,-110.4 44.8,-112 
				44.8,-100.8 33.6,-95.2 33.6,-98.4 40,-101.6 22.4,-110.4 18.1,-108.2 			"/>
			<polygon class="st2" points="18.1,-84.2 20.8,-85.6 20.8,-103.2 18.1,-101.8 18.1,-105 22.4,-107.2 33.6,-101.6 30.4,-100 
				24,-103.2 24,-85.6 41.6,-76.8 41.6,-83.2 44.8,-84.8 44.8,-73.6 33.6,-68 33.6,-71.2 40,-74.4 22.4,-83.2 18.1,-81.1 			"/>
			<polygon class="st2" points="81.2,-74.6 78.4,-76 78.4,-58.4 81.1,-57 81.2,-53.8 76.8,-56 59.2,-47.2 65.6,-44 65.6,-40.8 
				54.4,-46.4 54.4,-57.6 57.6,-56 57.6,-49.6 75.2,-58.4 75.2,-76 68.8,-72.8 65.6,-74.4 76.8,-80 81.1,-77.8 			"/>
			<polygon class="st1" points="49.6,-93.6 60.8,-88 57.6,-86.4 51.2,-89.6 51.2,-72 68.8,-63.2 68.8,-69.6 72,-71.2 72,-60 
				60.8,-54.4 60.8,-57.6 67.2,-60.8 49.6,-69.6 32,-60.8 38.4,-57.6 38.4,-54.4 27.2,-60 27.2,-71.2 30.4,-69.6 30.4,-63.2 48,-72 
				48,-89.6 41.6,-86.4 38.4,-88 			"/>
			<polygon class="st1" points="81.2,-47.4 78.4,-48.8 78.4,-31.2 81.1,-29.8 81.2,-26.6 76.8,-28.8 71.3,-26.1 65,-26.1 
				75.2,-31.2 75.2,-48.8 68.8,-45.6 65.6,-47.2 76.8,-52.8 81.1,-50.6 			"/>
			<polygon class="st2" points="49.6,-66.4 60.8,-60.8 57.6,-59.2 51.2,-62.4 51.2,-44.8 68.8,-36 68.8,-42.4 72,-44 72,-32.8 
				60.8,-27.2 60.8,-30.4 67.2,-33.6 49.6,-42.4 32,-33.6 38.4,-30.4 38.4,-27.2 27.2,-32.8 27.2,-44 30.4,-42.4 30.4,-36 48,-44.8 
				48,-62.4 41.6,-59.2 38.4,-60.8 			"/>
			<polygon class="st2" points="48,-26.1 48,-35.2 41.6,-32 38.4,-33.6 49.6,-39.2 60.8,-33.6 57.6,-32 51.2,-35.2 51.2,-26.1 			
				"/>
			<polygon class="st2" points="18.1,-57 20.8,-58.4 20.8,-76 18.1,-74.6 18.1,-77.9 22.4,-80 33.6,-74.4 30.4,-72.8 24,-76 
				24,-58.4 41.6,-49.6 41.6,-56 44.8,-57.6 44.8,-46.4 33.6,-40.8 33.6,-44 40,-47.2 22.4,-56 18.1,-53.9 			"/>
			<polygon class="st1" points="18.1,-26.6 22.4,-28.8 27.9,-26.1 34.3,-26.1 24,-31.2 24,-48.8 30.4,-45.6 33.6,-47.2 22.4,-52.8 
				18.1,-50.6 18,-47.4 20.8,-48.8 20.8,-31.2 18.1,-29.8 			"/>
		</g>
		<g>
			<polygon class="st1" points="24,-116.3 24,-112.8 26.7,-111.4 26.8,-108.2 22.4,-110.4 4.8,-101.6 11.2,-98.4 11.2,-95.2 
				0,-100.8 0,-112 3.2,-110.4 3.2,-104 20.8,-112.8 20.8,-116.3 			"/>
			<polygon class="st2" points="26.7,-101.8 24,-103.2 24,-85.6 26.8,-84.2 26.8,-81 22.4,-83.2 4.8,-74.4 11.2,-71.2 11.2,-68 
				0,-73.6 0,-84.8 3.2,-83.2 3.2,-76.8 20.8,-85.6 20.8,-103.2 14.4,-100 11.2,-101.6 22.4,-107.2 26.8,-105 			"/>
			<polygon class="st2" points="26.8,-74.6 24,-76 24,-58.4 26.8,-57 26.8,-53.8 22.4,-56 4.8,-47.2 11.2,-44 11.2,-40.8 0,-46.4 
				0,-57.6 3.2,-56 3.2,-49.6 20.8,-58.4 20.8,-76 14.4,-72.8 11.2,-74.4 22.4,-80 26.7,-77.8 			"/>
			<polygon class="st1" points="26.8,-47.4 24,-48.8 24,-31.2 26.7,-29.8 26.8,-26.6 22.4,-28.8 16.9,-26.1 10.6,-26.1 20.8,-31.2 
				20.8,-48.8 14.4,-45.6 11.2,-47.2 22.4,-52.8 26.7,-50.6 			"/>
		</g>
		<g>
			<polygon class="st1" points="72.5,-108.2 76.8,-110.4 82.3,-107.7 88.7,-107.7 78.4,-112.8 78.4,-130.4 84.8,-127.2 88,-128.8 
				76.8,-134.4 72.5,-132.2 72.4,-129 75.2,-130.4 75.2,-112.8 72.5,-111.4 			"/>
		</g>
		<g>
			<polygon class="st1" points="81.2,-129 78.4,-130.4 78.4,-112.8 81.1,-111.4 81.2,-108.2 76.8,-110.4 71.3,-107.7 65,-107.7 
				75.2,-112.8 75.2,-130.4 68.8,-127.2 65.6,-128.8 76.8,-134.4 81.1,-132.2 			"/>
			<polygon class="st2" points="49.6,-148 60.8,-142.4 57.6,-140.8 51.2,-144 51.2,-126.4 68.8,-117.6 68.8,-124 72,-125.6 
				72,-114.4 60.8,-108.8 60.8,-112 67.2,-115.2 49.6,-124 32,-115.2 38.4,-112 38.4,-108.8 27.2,-114.4 27.2,-125.6 30.4,-124 
				30.4,-117.6 48,-126.4 48,-144 41.6,-140.8 38.4,-142.4 			"/>
			<polygon class="st2" points="48,-107.7 48,-116.8 41.6,-113.6 38.4,-115.2 49.6,-120.8 60.8,-115.2 57.6,-113.6 51.2,-116.8 
				51.2,-107.7 			"/>
			<polygon class="st1" points="18.1,-108.2 22.4,-110.4 27.9,-107.7 34.3,-107.7 24,-112.8 24,-130.4 30.4,-127.2 33.6,-128.8 
				22.4,-134.4 18.1,-132.2 18,-129 20.8,-130.4 20.8,-112.8 18.1,-111.4 			"/>
		</g>
		<g>
			<polygon class="st1" points="26.8,-129 24,-130.4 24,-112.8 26.7,-111.4 26.8,-108.2 22.4,-110.4 16.9,-107.7 10.6,-107.7 
				20.8,-112.8 20.8,-130.4 14.4,-127.2 11.2,-128.8 22.4,-134.4 26.7,-132.2 			"/>
		</g>
	</g>
</pattern>
<sodipodi:namedview  id="namedview39" objecttolerance="10" inkscape:zoom="2.4336873" gridtolerance="10" bordercolor="#666666" inkscape:cy="148.16686" showgrid="false" borderopacity="1" guidetolerance="10" inkscape:cx="117.62976" pagecolor="#ffffff" inkscape:pageopacity="0" inkscape:window-x="0" inkscape:window-y="25" inkscape:pageshadow="2" inkscape:window-maximized="1" inkscape:window-height="977" inkscape:current-layer="svg2" inkscape:window-width="1680">
	</sodipodi:namedview>
<g id="Layer_x0020_1">
	<path id="path5" class="st4" d="M-663.2,994.2c0,3.8-3.1,6.9-6.9,6.9H-823c-3.8,0-6.9-3.1-6.9-6.9V765.8c0-3.8,3.1-6.9,6.9-6.9h153
		c3.8,0,6.9,3.1,6.9,6.9v228.4H-663.2z"/>
	<g id="g7">
		<g id="g9">
		</g>
	</g>
	<g id="g15">
	</g>
	<g id="g19">
	</g>
	<g id="g23">
		<g id="g25">
		</g>
	</g>
	<g id="g31">
		<g id="g33">
		</g>
	</g>
</g>
<radialGradient id="SVGID_1_" cx="-331.45" cy="501.95" r="98.5794" gradientTransform="matrix(1 0 0 -1 0 1002.6)" gradientUnits="userSpaceOnUse">
	<stop  offset="0" style="stop-color:#FFFFFF"/>
	<stop  offset="0.9252" style="stop-color:#000000"/>
</radialGradient>
<path class="st5" d="M-259.2,615.7h-144.4c-2.9,0-5.3-2.4-5.3-5.3V390.9c0-2.9,2.4-5.3,5.3-5.3h144.4c2.9,0,5.3,2.4,5.3,5.3v219.4
	C-254,613.3-256.4,615.7-259.2,615.7z"/>
</svg>
